<mxfile host="Electron" agent="Mozilla/5.0 (Windows NT 10.0; Win64; x64) AppleWebKit/537.36 (KHTML, like Gecko) draw.io/26.0.9 Chrome/128.0.6613.186 Electron/32.2.5 Safari/537.36" version="26.0.9">
  <diagram name="Страница — 1" id="jZnkS4G6jrmAG0vFsR_F">
    <mxGraphModel dx="1182" dy="683" grid="1" gridSize="10" guides="1" tooltips="1" connect="1" arrows="1" fold="1" page="1" pageScale="1" pageWidth="827" pageHeight="1169" math="0" shadow="0">
      <root>
        <mxCell id="0" />
        <mxCell id="1" parent="0" />
        <mxCell id="zvD-o7Wk8ceVR9qflsV9-1" value="int fibonacci(int n)" style="shape=process;whiteSpace=wrap;html=1;backgroundOutline=1;" vertex="1" parent="1">
          <mxGeometry x="290" y="100" width="160" height="20" as="geometry" />
        </mxCell>
        <mxCell id="zvD-o7Wk8ceVR9qflsV9-2" value="" style="edgeStyle=orthogonalEdgeStyle;rounded=0;orthogonalLoop=1;jettySize=auto;html=1;" edge="1" parent="1">
          <mxGeometry relative="1" as="geometry">
            <mxPoint x="373.70285714285706" y="120.00000000000011" as="sourcePoint" />
            <mxPoint x="373.94285714285706" y="140.0000000000001" as="targetPoint" />
          </mxGeometry>
        </mxCell>
        <mxCell id="zvD-o7Wk8ceVR9qflsV9-3" value="" style="edgeStyle=orthogonalEdgeStyle;rounded=0;orthogonalLoop=1;jettySize=auto;html=1;" edge="1" parent="1">
          <mxGeometry relative="1" as="geometry">
            <mxPoint x="373.94285714285706" y="120.00000000000011" as="sourcePoint" />
            <mxPoint x="373.94285714285706" y="140.0000000000001" as="targetPoint" />
          </mxGeometry>
        </mxCell>
        <mxCell id="zvD-o7Wk8ceVR9qflsV9-4" style="edgeStyle=orthogonalEdgeStyle;rounded=0;orthogonalLoop=1;jettySize=auto;html=1;exitX=0;exitY=0.5;exitDx=0;exitDy=0;" edge="1" source="zvD-o7Wk8ceVR9qflsV9-6" parent="1">
          <mxGeometry relative="1" as="geometry">
            <mxPoint x="230" y="230.0000000000001" as="targetPoint" />
          </mxGeometry>
        </mxCell>
        <mxCell id="zvD-o7Wk8ceVR9qflsV9-5" style="edgeStyle=orthogonalEdgeStyle;rounded=0;orthogonalLoop=1;jettySize=auto;html=1;exitX=1;exitY=0.5;exitDx=0;exitDy=0;" edge="1" source="zvD-o7Wk8ceVR9qflsV9-6" parent="1">
          <mxGeometry relative="1" as="geometry">
            <mxPoint x="380" y="280" as="targetPoint" />
            <Array as="points">
              <mxPoint x="460" y="180" />
              <mxPoint x="460" y="280" />
            </Array>
          </mxGeometry>
        </mxCell>
        <mxCell id="zvD-o7Wk8ceVR9qflsV9-6" value="if (n &amp;lt;= 1)" style="rhombus;whiteSpace=wrap;html=1;" vertex="1" parent="1">
          <mxGeometry x="310" y="140.0000000000001" width="130" height="80" as="geometry" />
        </mxCell>
        <mxCell id="zvD-o7Wk8ceVR9qflsV9-7" style="edgeStyle=orthogonalEdgeStyle;rounded=0;orthogonalLoop=1;jettySize=auto;html=1;exitX=0.5;exitY=1;exitDx=0;exitDy=0;" edge="1" parent="1">
          <mxGeometry relative="1" as="geometry">
            <mxPoint x="379.9999999999998" y="280.0000000000001" as="targetPoint" />
            <Array as="points">
              <mxPoint x="230" y="280.0000000000001" />
            </Array>
            <mxPoint x="230" y="260.0000000000001" as="sourcePoint" />
          </mxGeometry>
        </mxCell>
        <mxCell id="zvD-o7Wk8ceVR9qflsV9-11" value="return 1;" style="ellipse;whiteSpace=wrap;html=1;" vertex="1" parent="1">
          <mxGeometry x="170" y="230" width="120" height="40" as="geometry" />
        </mxCell>
        <mxCell id="zvD-o7Wk8ceVR9qflsV9-12" value="" style="endArrow=classic;html=1;rounded=0;" edge="1" parent="1">
          <mxGeometry width="50" height="50" relative="1" as="geometry">
            <mxPoint x="380" y="280" as="sourcePoint" />
            <mxPoint x="380" y="300" as="targetPoint" />
          </mxGeometry>
        </mxCell>
        <mxCell id="zvD-o7Wk8ceVR9qflsV9-13" value="&amp;nbsp;return fibonacci(n - 1) + fibonacci(n - 2);" style="ellipse;whiteSpace=wrap;html=1;" vertex="1" parent="1">
          <mxGeometry x="260" y="300" width="240" height="40" as="geometry" />
        </mxCell>
        <mxCell id="zvD-o7Wk8ceVR9qflsV9-14" value="{" style="text;html=1;align=center;verticalAlign=middle;resizable=0;points=[];autosize=1;strokeColor=none;fillColor=none;" vertex="1" parent="1">
          <mxGeometry x="285" y="128" width="30" height="30" as="geometry" />
        </mxCell>
        <mxCell id="zvD-o7Wk8ceVR9qflsV9-15" value="}" style="text;html=1;align=center;verticalAlign=middle;resizable=0;points=[];autosize=1;strokeColor=none;fillColor=none;" vertex="1" parent="1">
          <mxGeometry x="445" y="328" width="30" height="30" as="geometry" />
        </mxCell>
        <mxCell id="zvD-o7Wk8ceVR9qflsV9-17" style="edgeStyle=orthogonalEdgeStyle;rounded=0;orthogonalLoop=1;jettySize=auto;html=1;exitX=0.5;exitY=1;exitDx=0;exitDy=0;" edge="1" parent="1" source="zvD-o7Wk8ceVR9qflsV9-16">
          <mxGeometry relative="1" as="geometry">
            <mxPoint x="939.9310344827586" y="150" as="targetPoint" />
          </mxGeometry>
        </mxCell>
        <mxCell id="zvD-o7Wk8ceVR9qflsV9-16" value="int split_into_runs(int arr[], int size, int runs[][MAX], int run_lengths[])" style="shape=process;whiteSpace=wrap;html=1;backgroundOutline=1;" vertex="1" parent="1">
          <mxGeometry x="700" y="100" width="480" height="30" as="geometry" />
        </mxCell>
        <mxCell id="zvD-o7Wk8ceVR9qflsV9-18" value="int run_count = 0, idx = 0;" style="rounded=0;whiteSpace=wrap;html=1;" vertex="1" parent="1">
          <mxGeometry x="860" y="150" width="150" height="30" as="geometry" />
        </mxCell>
        <mxCell id="zvD-o7Wk8ceVR9qflsV9-19" style="edgeStyle=orthogonalEdgeStyle;rounded=0;orthogonalLoop=1;jettySize=auto;html=1;exitX=0.5;exitY=1;exitDx=0;exitDy=0;" edge="1" parent="1">
          <mxGeometry relative="1" as="geometry">
            <mxPoint x="939.9310344827586" y="200" as="targetPoint" />
            <mxPoint x="940" y="180" as="sourcePoint" />
          </mxGeometry>
        </mxCell>
        <mxCell id="zvD-o7Wk8ceVR9qflsV9-20" value="runs[run_count][idx++] = arr[0];" style="rounded=0;whiteSpace=wrap;html=1;" vertex="1" parent="1">
          <mxGeometry x="840" y="200" width="190" height="30" as="geometry" />
        </mxCell>
        <mxCell id="zvD-o7Wk8ceVR9qflsV9-21" value="" style="edgeStyle=orthogonalEdgeStyle;rounded=0;orthogonalLoop=1;jettySize=auto;html=1;" edge="1" parent="1">
          <mxGeometry relative="1" as="geometry">
            <mxPoint x="934.0114285714285" y="230" as="sourcePoint" />
            <mxPoint x="934.0114285714285" y="250" as="targetPoint" />
          </mxGeometry>
        </mxCell>
        <mxCell id="zvD-o7Wk8ceVR9qflsV9-47" style="edgeStyle=orthogonalEdgeStyle;rounded=0;orthogonalLoop=1;jettySize=auto;html=1;exitX=1;exitY=0.5;exitDx=0;exitDy=0;" edge="1" parent="1" source="zvD-o7Wk8ceVR9qflsV9-23">
          <mxGeometry relative="1" as="geometry">
            <mxPoint x="1350" y="310" as="targetPoint" />
          </mxGeometry>
        </mxCell>
        <mxCell id="zvD-o7Wk8ceVR9qflsV9-23" value="" style="verticalLabelPosition=bottom;verticalAlign=top;html=1;shape=hexagon;perimeter=hexagonPerimeter2;arcSize=6;size=0.11951219512195121;" vertex="1" parent="1">
          <mxGeometry x="829.5114285714285" y="250" width="205" height="50" as="geometry" />
        </mxCell>
        <mxCell id="zvD-o7Wk8ceVR9qflsV9-25" value="for (int i = 1; i &amp;lt; size; ++i)&amp;nbsp;" style="text;html=1;align=center;verticalAlign=middle;whiteSpace=wrap;rounded=0;" vertex="1" parent="1">
          <mxGeometry x="874.0114285714285" y="260" width="120" height="30" as="geometry" />
        </mxCell>
        <mxCell id="zvD-o7Wk8ceVR9qflsV9-28" value="" style="edgeStyle=orthogonalEdgeStyle;rounded=0;orthogonalLoop=1;jettySize=auto;html=1;" edge="1" parent="1">
          <mxGeometry relative="1" as="geometry">
            <mxPoint x="933.702857142857" y="300.0000000000001" as="sourcePoint" />
            <mxPoint x="933.9428571428571" y="320.0000000000001" as="targetPoint" />
          </mxGeometry>
        </mxCell>
        <mxCell id="zvD-o7Wk8ceVR9qflsV9-29" value="" style="edgeStyle=orthogonalEdgeStyle;rounded=0;orthogonalLoop=1;jettySize=auto;html=1;" edge="1" parent="1">
          <mxGeometry relative="1" as="geometry">
            <mxPoint x="933.9428571428571" y="300.0000000000001" as="sourcePoint" />
            <mxPoint x="933.9428571428571" y="320.0000000000001" as="targetPoint" />
          </mxGeometry>
        </mxCell>
        <mxCell id="zvD-o7Wk8ceVR9qflsV9-30" style="edgeStyle=orthogonalEdgeStyle;rounded=0;orthogonalLoop=1;jettySize=auto;html=1;exitX=0;exitY=0.5;exitDx=0;exitDy=0;" edge="1" source="zvD-o7Wk8ceVR9qflsV9-32" parent="1">
          <mxGeometry relative="1" as="geometry">
            <mxPoint x="790" y="410.0000000000001" as="targetPoint" />
          </mxGeometry>
        </mxCell>
        <mxCell id="zvD-o7Wk8ceVR9qflsV9-31" style="edgeStyle=orthogonalEdgeStyle;rounded=0;orthogonalLoop=1;jettySize=auto;html=1;exitX=1;exitY=0.5;exitDx=0;exitDy=0;" edge="1" source="zvD-o7Wk8ceVR9qflsV9-32" parent="1">
          <mxGeometry relative="1" as="geometry">
            <mxPoint x="1089.9999999999998" y="410.0000000000001" as="targetPoint" />
          </mxGeometry>
        </mxCell>
        <mxCell id="zvD-o7Wk8ceVR9qflsV9-32" value="if (arr[i] &amp;gt;= arr[i - 1])&amp;nbsp;" style="rhombus;whiteSpace=wrap;html=1;" vertex="1" parent="1">
          <mxGeometry x="870" y="320.0000000000001" width="130" height="80" as="geometry" />
        </mxCell>
        <mxCell id="zvD-o7Wk8ceVR9qflsV9-33" style="edgeStyle=orthogonalEdgeStyle;rounded=0;orthogonalLoop=1;jettySize=auto;html=1;exitX=0.5;exitY=1;exitDx=0;exitDy=0;" edge="1" source="zvD-o7Wk8ceVR9qflsV9-34" parent="1">
          <mxGeometry relative="1" as="geometry">
            <mxPoint x="940" y="610" as="targetPoint" />
            <Array as="points">
              <mxPoint x="790" y="610" />
              <mxPoint x="940" y="610" />
            </Array>
          </mxGeometry>
        </mxCell>
        <mxCell id="zvD-o7Wk8ceVR9qflsV9-34" value="&amp;nbsp;runs[run_count][idx++] = arr[i];" style="rounded=0;whiteSpace=wrap;html=1;" vertex="1" parent="1">
          <mxGeometry x="730" y="410.0000000000001" width="120" height="30" as="geometry" />
        </mxCell>
        <mxCell id="zvD-o7Wk8ceVR9qflsV9-38" style="edgeStyle=orthogonalEdgeStyle;rounded=0;orthogonalLoop=1;jettySize=auto;html=1;exitX=0.5;exitY=1;exitDx=0;exitDy=0;" edge="1" parent="1" source="zvD-o7Wk8ceVR9qflsV9-36">
          <mxGeometry relative="1" as="geometry">
            <mxPoint x="1090.2380952380952" y="460" as="targetPoint" />
          </mxGeometry>
        </mxCell>
        <mxCell id="zvD-o7Wk8ceVR9qflsV9-36" value="run_lengths[run_count] = idx;" style="rounded=0;whiteSpace=wrap;html=1;" vertex="1" parent="1">
          <mxGeometry x="1010" y="410" width="160" height="30" as="geometry" />
        </mxCell>
        <mxCell id="zvD-o7Wk8ceVR9qflsV9-39" value="run_count++;" style="rounded=0;whiteSpace=wrap;html=1;" vertex="1" parent="1">
          <mxGeometry x="1010" y="460" width="160" height="30" as="geometry" />
        </mxCell>
        <mxCell id="zvD-o7Wk8ceVR9qflsV9-40" style="edgeStyle=orthogonalEdgeStyle;rounded=0;orthogonalLoop=1;jettySize=auto;html=1;exitX=0.5;exitY=1;exitDx=0;exitDy=0;" edge="1" parent="1">
          <mxGeometry relative="1" as="geometry">
            <mxPoint x="1090.2380952380952" y="510" as="targetPoint" />
            <mxPoint x="1090" y="490" as="sourcePoint" />
          </mxGeometry>
        </mxCell>
        <mxCell id="zvD-o7Wk8ceVR9qflsV9-41" value="idx = 0;" style="rounded=0;whiteSpace=wrap;html=1;" vertex="1" parent="1">
          <mxGeometry x="1010" y="510" width="160" height="30" as="geometry" />
        </mxCell>
        <mxCell id="zvD-o7Wk8ceVR9qflsV9-42" style="edgeStyle=orthogonalEdgeStyle;rounded=0;orthogonalLoop=1;jettySize=auto;html=1;exitX=0.5;exitY=1;exitDx=0;exitDy=0;" edge="1" parent="1">
          <mxGeometry relative="1" as="geometry">
            <mxPoint x="1090.2380952380952" y="560" as="targetPoint" />
            <mxPoint x="1090" y="540" as="sourcePoint" />
          </mxGeometry>
        </mxCell>
        <mxCell id="zvD-o7Wk8ceVR9qflsV9-45" style="edgeStyle=orthogonalEdgeStyle;rounded=0;orthogonalLoop=1;jettySize=auto;html=1;exitX=0.5;exitY=1;exitDx=0;exitDy=0;" edge="1" parent="1" source="zvD-o7Wk8ceVR9qflsV9-43">
          <mxGeometry relative="1" as="geometry">
            <mxPoint x="940" y="610" as="targetPoint" />
            <Array as="points">
              <mxPoint x="1090" y="610" />
            </Array>
          </mxGeometry>
        </mxCell>
        <mxCell id="zvD-o7Wk8ceVR9qflsV9-43" value="runs[run_count][idx++] = arr[i];" style="rounded=0;whiteSpace=wrap;html=1;" vertex="1" parent="1">
          <mxGeometry x="1010" y="560" width="160" height="30" as="geometry" />
        </mxCell>
        <mxCell id="zvD-o7Wk8ceVR9qflsV9-46" value="" style="endArrow=classic;html=1;rounded=0;entryX=0.002;entryY=0.4;entryDx=0;entryDy=0;entryPerimeter=0;" edge="1" parent="1" target="zvD-o7Wk8ceVR9qflsV9-23">
          <mxGeometry width="50" height="50" relative="1" as="geometry">
            <mxPoint x="940" y="610" as="sourcePoint" />
            <mxPoint x="990" y="560" as="targetPoint" />
            <Array as="points">
              <mxPoint x="940" y="630" />
              <mxPoint x="720" y="630" />
              <mxPoint x="720" y="270" />
            </Array>
          </mxGeometry>
        </mxCell>
        <mxCell id="zvD-o7Wk8ceVR9qflsV9-49" style="edgeStyle=orthogonalEdgeStyle;rounded=0;orthogonalLoop=1;jettySize=auto;html=1;exitX=0.5;exitY=1;exitDx=0;exitDy=0;" edge="1" parent="1" source="zvD-o7Wk8ceVR9qflsV9-48">
          <mxGeometry relative="1" as="geometry">
            <mxPoint x="1350" y="360" as="targetPoint" />
          </mxGeometry>
        </mxCell>
        <mxCell id="zvD-o7Wk8ceVR9qflsV9-48" value="run_lengths[run_count] = idx;" style="rounded=0;whiteSpace=wrap;html=1;" vertex="1" parent="1">
          <mxGeometry x="1270" y="310" width="160" height="30" as="geometry" />
        </mxCell>
        <mxCell id="zvD-o7Wk8ceVR9qflsV9-50" value="return run_count + 1;" style="ellipse;whiteSpace=wrap;html=1;" vertex="1" parent="1">
          <mxGeometry x="1260" y="360" width="180" height="60" as="geometry" />
        </mxCell>
        <mxCell id="zvD-o7Wk8ceVR9qflsV9-51" value="{" style="text;html=1;align=center;verticalAlign=middle;resizable=0;points=[];autosize=1;strokeColor=none;fillColor=none;" vertex="1" parent="1">
          <mxGeometry x="795" y="138" width="30" height="30" as="geometry" />
        </mxCell>
        <mxCell id="zvD-o7Wk8ceVR9qflsV9-52" value="}" style="text;html=1;align=center;verticalAlign=middle;resizable=0;points=[];autosize=1;strokeColor=none;fillColor=none;" vertex="1" parent="1">
          <mxGeometry x="1435" y="408" width="30" height="30" as="geometry" />
        </mxCell>
        <mxCell id="zvD-o7Wk8ceVR9qflsV9-53" value="{" style="text;html=1;align=center;verticalAlign=middle;resizable=0;points=[];autosize=1;strokeColor=none;fillColor=none;" vertex="1" parent="1">
          <mxGeometry x="855" y="308" width="30" height="30" as="geometry" />
        </mxCell>
        <mxCell id="zvD-o7Wk8ceVR9qflsV9-54" value="}" style="text;html=1;align=center;verticalAlign=middle;resizable=0;points=[];autosize=1;strokeColor=none;fillColor=none;" vertex="1" parent="1">
          <mxGeometry x="995" y="618" width="30" height="30" as="geometry" />
        </mxCell>
        <mxCell id="zvD-o7Wk8ceVR9qflsV9-56" style="edgeStyle=orthogonalEdgeStyle;rounded=0;orthogonalLoop=1;jettySize=auto;html=1;exitX=0.5;exitY=1;exitDx=0;exitDy=0;" edge="1" parent="1" source="zvD-o7Wk8ceVR9qflsV9-55">
          <mxGeometry relative="1" as="geometry">
            <mxPoint x="260.20000000000005" y="600" as="targetPoint" />
          </mxGeometry>
        </mxCell>
        <mxCell id="zvD-o7Wk8ceVR9qflsV9-55" value="void print_array(const char* label, int arr[], int size)&amp;nbsp;" style="shape=process;whiteSpace=wrap;html=1;backgroundOutline=1;" vertex="1" parent="1">
          <mxGeometry x="20" y="555" width="480" height="30" as="geometry" />
        </mxCell>
        <mxCell id="zvD-o7Wk8ceVR9qflsV9-57" value="printf(&quot;%s: &quot;, label);" style="rounded=0;whiteSpace=wrap;html=1;" vertex="1" parent="1">
          <mxGeometry x="170" y="601" width="180" height="37" as="geometry" />
        </mxCell>
        <mxCell id="zvD-o7Wk8ceVR9qflsV9-60" value="" style="edgeStyle=orthogonalEdgeStyle;rounded=0;orthogonalLoop=1;jettySize=auto;html=1;" edge="1" parent="1">
          <mxGeometry relative="1" as="geometry">
            <mxPoint x="263.97142857142853" y="638" as="sourcePoint" />
            <mxPoint x="263.97142857142853" y="658" as="targetPoint" />
          </mxGeometry>
        </mxCell>
        <mxCell id="zvD-o7Wk8ceVR9qflsV9-61" style="edgeStyle=orthogonalEdgeStyle;rounded=0;orthogonalLoop=1;jettySize=auto;html=1;exitX=1;exitY=0.5;exitDx=0;exitDy=0;" edge="1" source="zvD-o7Wk8ceVR9qflsV9-62" parent="1">
          <mxGeometry relative="1" as="geometry">
            <mxPoint x="513.9714285714285" y="768" as="targetPoint" />
          </mxGeometry>
        </mxCell>
        <mxCell id="zvD-o7Wk8ceVR9qflsV9-62" value="" style="verticalLabelPosition=bottom;verticalAlign=top;html=1;shape=hexagon;perimeter=hexagonPerimeter2;arcSize=6;size=0.11951219512195121;" vertex="1" parent="1">
          <mxGeometry x="159.47142857142853" y="658" width="205" height="50" as="geometry" />
        </mxCell>
        <mxCell id="zvD-o7Wk8ceVR9qflsV9-63" value="" style="edgeStyle=orthogonalEdgeStyle;rounded=0;orthogonalLoop=1;jettySize=auto;html=1;" edge="1" parent="1">
          <mxGeometry relative="1" as="geometry">
            <mxPoint x="263.7314285714285" y="708" as="sourcePoint" />
            <mxPoint x="263.97142857142853" y="728" as="targetPoint" />
          </mxGeometry>
        </mxCell>
        <mxCell id="zvD-o7Wk8ceVR9qflsV9-64" value="for (int i = 0; i &amp;lt; size; ++i)" style="text;html=1;align=center;verticalAlign=middle;whiteSpace=wrap;rounded=0;" vertex="1" parent="1">
          <mxGeometry x="203.97142857142853" y="668" width="120" height="30" as="geometry" />
        </mxCell>
        <mxCell id="zvD-o7Wk8ceVR9qflsV9-65" value="" style="edgeStyle=orthogonalEdgeStyle;rounded=0;orthogonalLoop=1;jettySize=auto;html=1;entryX=0;entryY=0.5;entryDx=0;entryDy=0;" edge="1" target="zvD-o7Wk8ceVR9qflsV9-62" parent="1">
          <mxGeometry relative="1" as="geometry">
            <mxPoint x="263.97142857142853" y="758" as="sourcePoint" />
            <mxPoint x="143.97142857142853" y="728" as="targetPoint" />
            <Array as="points">
              <mxPoint x="263.97142857142853" y="808" />
              <mxPoint x="139.97142857142853" y="808" />
              <mxPoint x="139.97142857142853" y="683" />
            </Array>
          </mxGeometry>
        </mxCell>
        <mxCell id="zvD-o7Wk8ceVR9qflsV9-66" value="printf(&quot;%d &quot;, arr[i]);" style="rounded=0;whiteSpace=wrap;html=1;" vertex="1" parent="1">
          <mxGeometry x="203.97142857142853" y="728" width="120" height="30" as="geometry" />
        </mxCell>
        <mxCell id="zvD-o7Wk8ceVR9qflsV9-68" value="return;" style="ellipse;whiteSpace=wrap;html=1;" vertex="1" parent="1">
          <mxGeometry x="460" y="770" width="120" height="60" as="geometry" />
        </mxCell>
        <mxCell id="zvD-o7Wk8ceVR9qflsV9-72" style="edgeStyle=orthogonalEdgeStyle;rounded=0;orthogonalLoop=1;jettySize=auto;html=1;exitX=0.5;exitY=1;exitDx=0;exitDy=0;" edge="1" parent="1" source="zvD-o7Wk8ceVR9qflsV9-69">
          <mxGeometry relative="1" as="geometry">
            <mxPoint x="1160.2222222222222" y="790" as="targetPoint" />
          </mxGeometry>
        </mxCell>
        <mxCell id="zvD-o7Wk8ceVR9qflsV9-69" value="void merge(int A[], int sizeA, int B[], int sizeB, int result[], int&amp;amp; sizeResult)&amp;nbsp;" style="shape=process;whiteSpace=wrap;html=1;backgroundOutline=1;" vertex="1" parent="1">
          <mxGeometry x="920" y="740" width="480" height="30" as="geometry" />
        </mxCell>
        <mxCell id="zvD-o7Wk8ceVR9qflsV9-70" value="{" style="text;html=1;align=center;verticalAlign=middle;resizable=0;points=[];autosize=1;strokeColor=none;fillColor=none;" vertex="1" parent="1">
          <mxGeometry x="85" y="608" width="30" height="30" as="geometry" />
        </mxCell>
        <mxCell id="zvD-o7Wk8ceVR9qflsV9-71" value="}" style="text;html=1;align=center;verticalAlign=middle;resizable=0;points=[];autosize=1;strokeColor=none;fillColor=none;" vertex="1" parent="1">
          <mxGeometry x="535" y="838" width="30" height="30" as="geometry" />
        </mxCell>
        <mxCell id="zvD-o7Wk8ceVR9qflsV9-74" style="edgeStyle=orthogonalEdgeStyle;rounded=0;orthogonalLoop=1;jettySize=auto;html=1;exitX=0.5;exitY=1;exitDx=0;exitDy=0;" edge="1" parent="1" source="zvD-o7Wk8ceVR9qflsV9-73">
          <mxGeometry relative="1" as="geometry">
            <mxPoint x="1155.1739130434785" y="840" as="targetPoint" />
          </mxGeometry>
        </mxCell>
        <mxCell id="zvD-o7Wk8ceVR9qflsV9-73" value="printf(&quot;Слияние: &quot;);" style="shape=parallelogram;perimeter=parallelogramPerimeter;whiteSpace=wrap;html=1;fixedSize=1;" vertex="1" parent="1">
          <mxGeometry x="1070" y="790" width="170" height="30" as="geometry" />
        </mxCell>
        <mxCell id="zvD-o7Wk8ceVR9qflsV9-75" value="&amp;nbsp;print_array(&quot;A&quot;, A, sizeA);" style="rounded=0;whiteSpace=wrap;html=1;" vertex="1" parent="1">
          <mxGeometry x="1050" y="840" width="210" height="30" as="geometry" />
        </mxCell>
        <mxCell id="zvD-o7Wk8ceVR9qflsV9-76" style="edgeStyle=orthogonalEdgeStyle;rounded=0;orthogonalLoop=1;jettySize=auto;html=1;exitX=0.5;exitY=1;exitDx=0;exitDy=0;" edge="1" parent="1">
          <mxGeometry relative="1" as="geometry">
            <mxPoint x="1155.1739130434785" y="888" as="targetPoint" />
            <mxPoint x="1155" y="868" as="sourcePoint" />
          </mxGeometry>
        </mxCell>
        <mxCell id="zvD-o7Wk8ceVR9qflsV9-77" value="print_array(&quot;B&quot;, B, sizeB);" style="rounded=0;whiteSpace=wrap;html=1;" vertex="1" parent="1">
          <mxGeometry x="1050" y="888" width="210" height="30" as="geometry" />
        </mxCell>
        <mxCell id="zvD-o7Wk8ceVR9qflsV9-79" style="edgeStyle=orthogonalEdgeStyle;rounded=0;orthogonalLoop=1;jettySize=auto;html=1;exitX=0.5;exitY=1;exitDx=0;exitDy=0;" edge="1" parent="1">
          <mxGeometry relative="1" as="geometry">
            <mxPoint x="1155.1739130434785" y="938" as="targetPoint" />
            <mxPoint x="1155" y="918" as="sourcePoint" />
          </mxGeometry>
        </mxCell>
        <mxCell id="zvD-o7Wk8ceVR9qflsV9-81" style="edgeStyle=orthogonalEdgeStyle;rounded=0;orthogonalLoop=1;jettySize=auto;html=1;exitX=0.5;exitY=1;exitDx=0;exitDy=0;" edge="1" parent="1" source="zvD-o7Wk8ceVR9qflsV9-80">
          <mxGeometry relative="1" as="geometry">
            <mxPoint x="1155.1739130434785" y="990" as="targetPoint" />
          </mxGeometry>
        </mxCell>
        <mxCell id="zvD-o7Wk8ceVR9qflsV9-80" value="&amp;nbsp;int i = 0, j = 0, k = 0;" style="rounded=0;whiteSpace=wrap;html=1;" vertex="1" parent="1">
          <mxGeometry x="1050" y="938" width="210" height="30" as="geometry" />
        </mxCell>
        <mxCell id="zvD-o7Wk8ceVR9qflsV9-93" style="edgeStyle=orthogonalEdgeStyle;rounded=0;orthogonalLoop=1;jettySize=auto;html=1;exitX=1;exitY=0.5;exitDx=0;exitDy=0;" edge="1" parent="1" source="zvD-o7Wk8ceVR9qflsV9-82">
          <mxGeometry relative="1" as="geometry">
            <mxPoint x="1570" y="1080" as="targetPoint" />
          </mxGeometry>
        </mxCell>
        <mxCell id="zvD-o7Wk8ceVR9qflsV9-82" value="while (i &amp;lt; sizeA &amp;amp;&amp;amp; j &amp;lt; sizeB)&amp;nbsp;" style="rhombus;whiteSpace=wrap;html=1;" vertex="1" parent="1">
          <mxGeometry x="1020" y="990" width="270" height="80" as="geometry" />
        </mxCell>
        <mxCell id="zvD-o7Wk8ceVR9qflsV9-83" value="" style="edgeStyle=orthogonalEdgeStyle;rounded=0;orthogonalLoop=1;jettySize=auto;html=1;" edge="1" parent="1">
          <mxGeometry relative="1" as="geometry">
            <mxPoint x="1153.702857142857" y="1070" as="sourcePoint" />
            <mxPoint x="1153.942857142857" y="1090" as="targetPoint" />
          </mxGeometry>
        </mxCell>
        <mxCell id="zvD-o7Wk8ceVR9qflsV9-84" value="" style="edgeStyle=orthogonalEdgeStyle;rounded=0;orthogonalLoop=1;jettySize=auto;html=1;" edge="1" parent="1">
          <mxGeometry relative="1" as="geometry">
            <mxPoint x="1153.942857142857" y="1070" as="sourcePoint" />
            <mxPoint x="1153.942857142857" y="1090" as="targetPoint" />
          </mxGeometry>
        </mxCell>
        <mxCell id="zvD-o7Wk8ceVR9qflsV9-85" style="edgeStyle=orthogonalEdgeStyle;rounded=0;orthogonalLoop=1;jettySize=auto;html=1;exitX=0;exitY=0.5;exitDx=0;exitDy=0;" edge="1" source="zvD-o7Wk8ceVR9qflsV9-87" parent="1">
          <mxGeometry relative="1" as="geometry">
            <mxPoint x="1010" y="1180" as="targetPoint" />
          </mxGeometry>
        </mxCell>
        <mxCell id="zvD-o7Wk8ceVR9qflsV9-86" style="edgeStyle=orthogonalEdgeStyle;rounded=0;orthogonalLoop=1;jettySize=auto;html=1;exitX=1;exitY=0.5;exitDx=0;exitDy=0;" edge="1" source="zvD-o7Wk8ceVR9qflsV9-87" parent="1">
          <mxGeometry relative="1" as="geometry">
            <mxPoint x="1309.9999999999998" y="1180" as="targetPoint" />
          </mxGeometry>
        </mxCell>
        <mxCell id="zvD-o7Wk8ceVR9qflsV9-87" value="if (A[i] &amp;lt; B[j])" style="rhombus;whiteSpace=wrap;html=1;" vertex="1" parent="1">
          <mxGeometry x="1090" y="1090" width="130" height="80" as="geometry" />
        </mxCell>
        <mxCell id="zvD-o7Wk8ceVR9qflsV9-88" style="edgeStyle=orthogonalEdgeStyle;rounded=0;orthogonalLoop=1;jettySize=auto;html=1;exitX=0.5;exitY=1;exitDx=0;exitDy=0;" edge="1" source="zvD-o7Wk8ceVR9qflsV9-89" parent="1">
          <mxGeometry relative="1" as="geometry">
            <mxPoint x="1159.9999999999998" y="1230" as="targetPoint" />
            <Array as="points">
              <mxPoint x="1010" y="1230" />
            </Array>
          </mxGeometry>
        </mxCell>
        <mxCell id="zvD-o7Wk8ceVR9qflsV9-89" value="&amp;nbsp;result[k++] = A[i++];" style="rounded=0;whiteSpace=wrap;html=1;" vertex="1" parent="1">
          <mxGeometry x="950" y="1180" width="120" height="30" as="geometry" />
        </mxCell>
        <mxCell id="zvD-o7Wk8ceVR9qflsV9-90" style="edgeStyle=orthogonalEdgeStyle;rounded=0;orthogonalLoop=1;jettySize=auto;html=1;exitX=0.5;exitY=1;exitDx=0;exitDy=0;" edge="1" source="zvD-o7Wk8ceVR9qflsV9-91" parent="1">
          <mxGeometry relative="1" as="geometry">
            <mxPoint x="1159.9999999999998" y="1230" as="targetPoint" />
            <Array as="points">
              <mxPoint x="1310" y="1230" />
            </Array>
          </mxGeometry>
        </mxCell>
        <mxCell id="zvD-o7Wk8ceVR9qflsV9-91" value="result[k++] = B[j++];" style="rounded=0;whiteSpace=wrap;html=1;" vertex="1" parent="1">
          <mxGeometry x="1250" y="1180" width="120" height="30" as="geometry" />
        </mxCell>
        <mxCell id="zvD-o7Wk8ceVR9qflsV9-92" value="" style="endArrow=classic;html=1;rounded=0;entryX=0;entryY=0.5;entryDx=0;entryDy=0;" edge="1" parent="1" target="zvD-o7Wk8ceVR9qflsV9-82">
          <mxGeometry width="50" height="50" relative="1" as="geometry">
            <mxPoint x="1160" y="1230" as="sourcePoint" />
            <mxPoint x="1210" y="1180" as="targetPoint" />
            <Array as="points">
              <mxPoint x="1160" y="1260" />
              <mxPoint x="940" y="1260" />
              <mxPoint x="940" y="1030" />
            </Array>
          </mxGeometry>
        </mxCell>
        <mxCell id="zvD-o7Wk8ceVR9qflsV9-95" style="edgeStyle=orthogonalEdgeStyle;rounded=0;orthogonalLoop=1;jettySize=auto;html=1;exitX=0.5;exitY=1;exitDx=0;exitDy=0;" edge="1" parent="1" source="zvD-o7Wk8ceVR9qflsV9-94">
          <mxGeometry relative="1" as="geometry">
            <mxPoint x="1570.25" y="1180" as="targetPoint" />
          </mxGeometry>
        </mxCell>
        <mxCell id="zvD-o7Wk8ceVR9qflsV9-98" style="edgeStyle=orthogonalEdgeStyle;rounded=0;orthogonalLoop=1;jettySize=auto;html=1;exitX=1;exitY=0.5;exitDx=0;exitDy=0;" edge="1" parent="1" source="zvD-o7Wk8ceVR9qflsV9-94">
          <mxGeometry relative="1" as="geometry">
            <mxPoint x="1810" y="1170" as="targetPoint" />
          </mxGeometry>
        </mxCell>
        <mxCell id="zvD-o7Wk8ceVR9qflsV9-94" value="while (i &amp;lt; sizeA)" style="rhombus;whiteSpace=wrap;html=1;" vertex="1" parent="1">
          <mxGeometry x="1500" y="1080" width="140" height="80" as="geometry" />
        </mxCell>
        <mxCell id="zvD-o7Wk8ceVR9qflsV9-97" style="edgeStyle=orthogonalEdgeStyle;rounded=0;orthogonalLoop=1;jettySize=auto;html=1;exitX=0.5;exitY=1;exitDx=0;exitDy=0;entryX=0;entryY=0.5;entryDx=0;entryDy=0;" edge="1" parent="1" source="zvD-o7Wk8ceVR9qflsV9-96" target="zvD-o7Wk8ceVR9qflsV9-94">
          <mxGeometry relative="1" as="geometry" />
        </mxCell>
        <mxCell id="zvD-o7Wk8ceVR9qflsV9-96" value="result[k++] = A[i++];" style="rounded=0;whiteSpace=wrap;html=1;" vertex="1" parent="1">
          <mxGeometry x="1510" y="1180" width="120" height="30" as="geometry" />
        </mxCell>
        <mxCell id="zvD-o7Wk8ceVR9qflsV9-99" style="edgeStyle=orthogonalEdgeStyle;rounded=0;orthogonalLoop=1;jettySize=auto;html=1;exitX=0.5;exitY=1;exitDx=0;exitDy=0;" edge="1" parent="1" source="zvD-o7Wk8ceVR9qflsV9-100">
          <mxGeometry relative="1" as="geometry">
            <mxPoint x="1810.25" y="1270" as="targetPoint" />
          </mxGeometry>
        </mxCell>
        <mxCell id="zvD-o7Wk8ceVR9qflsV9-103" style="edgeStyle=orthogonalEdgeStyle;rounded=0;orthogonalLoop=1;jettySize=auto;html=1;exitX=1;exitY=0.5;exitDx=0;exitDy=0;" edge="1" parent="1" source="zvD-o7Wk8ceVR9qflsV9-100">
          <mxGeometry relative="1" as="geometry">
            <mxPoint x="2060" y="1260" as="targetPoint" />
          </mxGeometry>
        </mxCell>
        <mxCell id="zvD-o7Wk8ceVR9qflsV9-100" value="while (j &amp;lt; sizeB)" style="rhombus;whiteSpace=wrap;html=1;" vertex="1" parent="1">
          <mxGeometry x="1740" y="1170" width="140" height="80" as="geometry" />
        </mxCell>
        <mxCell id="zvD-o7Wk8ceVR9qflsV9-101" style="edgeStyle=orthogonalEdgeStyle;rounded=0;orthogonalLoop=1;jettySize=auto;html=1;exitX=0.5;exitY=1;exitDx=0;exitDy=0;entryX=0;entryY=0.5;entryDx=0;entryDy=0;" edge="1" parent="1" source="zvD-o7Wk8ceVR9qflsV9-102" target="zvD-o7Wk8ceVR9qflsV9-100">
          <mxGeometry relative="1" as="geometry" />
        </mxCell>
        <mxCell id="zvD-o7Wk8ceVR9qflsV9-102" value="result[k++] = B[j++];" style="rounded=0;whiteSpace=wrap;html=1;" vertex="1" parent="1">
          <mxGeometry x="1750" y="1270" width="120" height="30" as="geometry" />
        </mxCell>
        <mxCell id="zvD-o7Wk8ceVR9qflsV9-105" style="edgeStyle=orthogonalEdgeStyle;rounded=0;orthogonalLoop=1;jettySize=auto;html=1;exitX=0.5;exitY=1;exitDx=0;exitDy=0;" edge="1" parent="1" source="zvD-o7Wk8ceVR9qflsV9-104">
          <mxGeometry relative="1" as="geometry">
            <mxPoint x="2059.787878787879" y="1310" as="targetPoint" />
          </mxGeometry>
        </mxCell>
        <mxCell id="zvD-o7Wk8ceVR9qflsV9-104" value="sizeResult = k;" style="rounded=0;whiteSpace=wrap;html=1;" vertex="1" parent="1">
          <mxGeometry x="2000" y="1260" width="120" height="30" as="geometry" />
        </mxCell>
        <mxCell id="zvD-o7Wk8ceVR9qflsV9-107" style="edgeStyle=orthogonalEdgeStyle;rounded=0;orthogonalLoop=1;jettySize=auto;html=1;exitX=0.5;exitY=1;exitDx=0;exitDy=0;" edge="1" parent="1" source="zvD-o7Wk8ceVR9qflsV9-106">
          <mxGeometry relative="1" as="geometry">
            <mxPoint x="2065.2424242424245" y="1360" as="targetPoint" />
          </mxGeometry>
        </mxCell>
        <mxCell id="zvD-o7Wk8ceVR9qflsV9-106" value="print_array(&quot;Результат&quot;, result, sizeResult);" style="rounded=0;whiteSpace=wrap;html=1;" vertex="1" parent="1">
          <mxGeometry x="1910" y="1310" width="310" height="30" as="geometry" />
        </mxCell>
        <mxCell id="zvD-o7Wk8ceVR9qflsV9-108" value="return;" style="ellipse;whiteSpace=wrap;html=1;" vertex="1" parent="1">
          <mxGeometry x="2005" y="1360" width="120" height="40" as="geometry" />
        </mxCell>
        <mxCell id="zvD-o7Wk8ceVR9qflsV9-109" value="}" style="text;html=1;align=center;verticalAlign=middle;resizable=0;points=[];autosize=1;strokeColor=none;fillColor=none;" vertex="1" parent="1">
          <mxGeometry x="2105" y="1398" width="30" height="30" as="geometry" />
        </mxCell>
        <mxCell id="zvD-o7Wk8ceVR9qflsV9-110" value="{" style="text;html=1;align=center;verticalAlign=middle;resizable=0;points=[];autosize=1;strokeColor=none;fillColor=none;" vertex="1" parent="1">
          <mxGeometry x="985" y="788" width="30" height="30" as="geometry" />
        </mxCell>
        <mxCell id="zvD-o7Wk8ceVR9qflsV9-111" value="void copy_array(int src[], int len, int dst[])" style="shape=process;whiteSpace=wrap;html=1;backgroundOutline=1;" vertex="1" parent="1">
          <mxGeometry x="900" y="1390" width="290" height="30" as="geometry" />
        </mxCell>
        <mxCell id="zvD-o7Wk8ceVR9qflsV9-112" value="" style="edgeStyle=orthogonalEdgeStyle;rounded=0;orthogonalLoop=1;jettySize=auto;html=1;" edge="1" parent="1">
          <mxGeometry relative="1" as="geometry">
            <mxPoint x="1053.9714285714285" y="1420" as="sourcePoint" />
            <mxPoint x="1053.9714285714285" y="1440" as="targetPoint" />
          </mxGeometry>
        </mxCell>
        <mxCell id="zvD-o7Wk8ceVR9qflsV9-113" style="edgeStyle=orthogonalEdgeStyle;rounded=0;orthogonalLoop=1;jettySize=auto;html=1;exitX=1;exitY=0.5;exitDx=0;exitDy=0;" edge="1" source="zvD-o7Wk8ceVR9qflsV9-114" parent="1">
          <mxGeometry relative="1" as="geometry">
            <mxPoint x="1303.9714285714285" y="1550" as="targetPoint" />
          </mxGeometry>
        </mxCell>
        <mxCell id="zvD-o7Wk8ceVR9qflsV9-114" value="" style="verticalLabelPosition=bottom;verticalAlign=top;html=1;shape=hexagon;perimeter=hexagonPerimeter2;arcSize=6;size=0.11951219512195121;" vertex="1" parent="1">
          <mxGeometry x="949.4714285714285" y="1440" width="205" height="50" as="geometry" />
        </mxCell>
        <mxCell id="zvD-o7Wk8ceVR9qflsV9-115" value="" style="edgeStyle=orthogonalEdgeStyle;rounded=0;orthogonalLoop=1;jettySize=auto;html=1;" edge="1" parent="1">
          <mxGeometry relative="1" as="geometry">
            <mxPoint x="1053.7314285714285" y="1490" as="sourcePoint" />
            <mxPoint x="1053.9714285714285" y="1510" as="targetPoint" />
          </mxGeometry>
        </mxCell>
        <mxCell id="zvD-o7Wk8ceVR9qflsV9-116" value="for (int i = 0; i &amp;lt; len; ++i)" style="text;html=1;align=center;verticalAlign=middle;whiteSpace=wrap;rounded=0;" vertex="1" parent="1">
          <mxGeometry x="993.9714285714285" y="1450" width="120" height="30" as="geometry" />
        </mxCell>
        <mxCell id="zvD-o7Wk8ceVR9qflsV9-117" value="" style="edgeStyle=orthogonalEdgeStyle;rounded=0;orthogonalLoop=1;jettySize=auto;html=1;entryX=0;entryY=0.5;entryDx=0;entryDy=0;" edge="1" target="zvD-o7Wk8ceVR9qflsV9-114" parent="1">
          <mxGeometry relative="1" as="geometry">
            <mxPoint x="1053.9714285714285" y="1540" as="sourcePoint" />
            <mxPoint x="933.9714285714285" y="1510" as="targetPoint" />
            <Array as="points">
              <mxPoint x="1053.9714285714285" y="1590" />
              <mxPoint x="929.9714285714285" y="1590" />
              <mxPoint x="929.9714285714285" y="1465" />
            </Array>
          </mxGeometry>
        </mxCell>
        <mxCell id="zvD-o7Wk8ceVR9qflsV9-118" value="dst[i] = src[i];" style="rounded=0;whiteSpace=wrap;html=1;" vertex="1" parent="1">
          <mxGeometry x="993.9714285714285" y="1510" width="120" height="30" as="geometry" />
        </mxCell>
        <mxCell id="zvD-o7Wk8ceVR9qflsV9-119" value="return;" style="ellipse;whiteSpace=wrap;html=1;" vertex="1" parent="1">
          <mxGeometry x="1240" y="1550" width="120" height="40" as="geometry" />
        </mxCell>
        <mxCell id="zvD-o7Wk8ceVR9qflsV9-120" value="{" style="text;html=1;align=center;verticalAlign=middle;resizable=0;points=[];autosize=1;strokeColor=none;fillColor=none;" vertex="1" parent="1">
          <mxGeometry x="875" y="1428" width="30" height="30" as="geometry" />
        </mxCell>
        <mxCell id="zvD-o7Wk8ceVR9qflsV9-121" value="}" style="text;html=1;align=center;verticalAlign=middle;resizable=0;points=[];autosize=1;strokeColor=none;fillColor=none;" vertex="1" parent="1">
          <mxGeometry x="1325" y="1598" width="30" height="30" as="geometry" />
        </mxCell>
        <mxCell id="zvD-o7Wk8ceVR9qflsV9-122" value="void merge_groups(int group_idx, int group_indices[][10], int group_sizes[], int runs[][MAX], int run_lengths[], int temp[], int&amp;amp; temp_len)" style="shape=process;whiteSpace=wrap;html=1;backgroundOutline=1;" vertex="1" parent="1">
          <mxGeometry x="1540" y="1700" width="690" height="30" as="geometry" />
        </mxCell>
        <mxCell id="zvD-o7Wk8ceVR9qflsV9-123" value="" style="edgeStyle=orthogonalEdgeStyle;rounded=0;orthogonalLoop=1;jettySize=auto;html=1;" edge="1" parent="1">
          <mxGeometry relative="1" as="geometry">
            <mxPoint x="1888.702857142857" y="1730" as="sourcePoint" />
            <mxPoint x="1888.942857142857" y="1750" as="targetPoint" />
          </mxGeometry>
        </mxCell>
        <mxCell id="zvD-o7Wk8ceVR9qflsV9-124" value="" style="edgeStyle=orthogonalEdgeStyle;rounded=0;orthogonalLoop=1;jettySize=auto;html=1;" edge="1" parent="1">
          <mxGeometry relative="1" as="geometry">
            <mxPoint x="1888.942857142857" y="1730" as="sourcePoint" />
            <mxPoint x="1888.942857142857" y="1750" as="targetPoint" />
          </mxGeometry>
        </mxCell>
        <mxCell id="zvD-o7Wk8ceVR9qflsV9-125" style="edgeStyle=orthogonalEdgeStyle;rounded=0;orthogonalLoop=1;jettySize=auto;html=1;exitX=0;exitY=0.5;exitDx=0;exitDy=0;" edge="1" source="zvD-o7Wk8ceVR9qflsV9-127" parent="1">
          <mxGeometry relative="1" as="geometry">
            <mxPoint x="1745" y="1840" as="targetPoint" />
          </mxGeometry>
        </mxCell>
        <mxCell id="zvD-o7Wk8ceVR9qflsV9-126" style="edgeStyle=orthogonalEdgeStyle;rounded=0;orthogonalLoop=1;jettySize=auto;html=1;exitX=1;exitY=0.5;exitDx=0;exitDy=0;" edge="1" source="zvD-o7Wk8ceVR9qflsV9-127" parent="1">
          <mxGeometry relative="1" as="geometry">
            <mxPoint x="1890" y="1890" as="targetPoint" />
            <Array as="points">
              <mxPoint x="1975" y="1790" />
              <mxPoint x="1975" y="1890" />
            </Array>
          </mxGeometry>
        </mxCell>
        <mxCell id="zvD-o7Wk8ceVR9qflsV9-127" value="if (group_idx &amp;lt; 0)" style="rhombus;whiteSpace=wrap;html=1;" vertex="1" parent="1">
          <mxGeometry x="1825" y="1750" width="130" height="80" as="geometry" />
        </mxCell>
        <mxCell id="zvD-o7Wk8ceVR9qflsV9-128" style="edgeStyle=orthogonalEdgeStyle;rounded=0;orthogonalLoop=1;jettySize=auto;html=1;exitX=0.5;exitY=1;exitDx=0;exitDy=0;" edge="1" parent="1">
          <mxGeometry relative="1" as="geometry">
            <mxPoint x="1894.9999999999998" y="1890" as="targetPoint" />
            <Array as="points">
              <mxPoint x="1745" y="1890" />
            </Array>
            <mxPoint x="1745" y="1870" as="sourcePoint" />
          </mxGeometry>
        </mxCell>
        <mxCell id="zvD-o7Wk8ceVR9qflsV9-132" value="return;" style="ellipse;whiteSpace=wrap;html=1;" vertex="1" parent="1">
          <mxGeometry x="1690" y="1840" width="120" height="30" as="geometry" />
        </mxCell>
        <mxCell id="zvD-o7Wk8ceVR9qflsV9-133" value="" style="edgeStyle=orthogonalEdgeStyle;rounded=0;orthogonalLoop=1;jettySize=auto;html=1;" edge="1" parent="1">
          <mxGeometry relative="1" as="geometry">
            <mxPoint x="1893.9714285714285" y="1890" as="sourcePoint" />
            <mxPoint x="1893.9714285714285" y="1910" as="targetPoint" />
          </mxGeometry>
        </mxCell>
        <mxCell id="zvD-o7Wk8ceVR9qflsV9-134" style="edgeStyle=orthogonalEdgeStyle;rounded=0;orthogonalLoop=1;jettySize=auto;html=1;exitX=1;exitY=0.5;exitDx=0;exitDy=0;" edge="1" source="zvD-o7Wk8ceVR9qflsV9-135" parent="1">
          <mxGeometry relative="1" as="geometry">
            <mxPoint x="2240" y="1970" as="targetPoint" />
          </mxGeometry>
        </mxCell>
        <mxCell id="zvD-o7Wk8ceVR9qflsV9-135" value="" style="verticalLabelPosition=bottom;verticalAlign=top;html=1;shape=hexagon;perimeter=hexagonPerimeter2;arcSize=6;size=0.11951219512195121;" vertex="1" parent="1">
          <mxGeometry x="1789.4714285714285" y="1910" width="205" height="50" as="geometry" />
        </mxCell>
        <mxCell id="zvD-o7Wk8ceVR9qflsV9-136" value="" style="edgeStyle=orthogonalEdgeStyle;rounded=0;orthogonalLoop=1;jettySize=auto;html=1;" edge="1" parent="1">
          <mxGeometry relative="1" as="geometry">
            <mxPoint x="1893.7314285714285" y="1960" as="sourcePoint" />
            <mxPoint x="1893.9714285714285" y="1980" as="targetPoint" />
          </mxGeometry>
        </mxCell>
        <mxCell id="zvD-o7Wk8ceVR9qflsV9-137" value="for (int i = 0; i &amp;lt; group_sizes[group_idx]; ++i)" style="text;html=1;align=center;verticalAlign=middle;whiteSpace=wrap;rounded=0;" vertex="1" parent="1">
          <mxGeometry x="1833.9714285714285" y="1920" width="120" height="30" as="geometry" />
        </mxCell>
        <mxCell id="zvD-o7Wk8ceVR9qflsV9-139" value="int idx = group_indices[group_idx][i];" style="rounded=0;whiteSpace=wrap;html=1;" vertex="1" parent="1">
          <mxGeometry x="1780" y="1980" width="240" height="30" as="geometry" />
        </mxCell>
        <mxCell id="zvD-o7Wk8ceVR9qflsV9-141" value="" style="edgeStyle=orthogonalEdgeStyle;rounded=0;orthogonalLoop=1;jettySize=auto;html=1;" edge="1" parent="1">
          <mxGeometry relative="1" as="geometry">
            <mxPoint x="1893.7314285714285" y="2010" as="sourcePoint" />
            <mxPoint x="1893.9714285714285" y="2030" as="targetPoint" />
          </mxGeometry>
        </mxCell>
        <mxCell id="zvD-o7Wk8ceVR9qflsV9-142" value="int merged[MAX], merged_len;" style="rounded=0;whiteSpace=wrap;html=1;" vertex="1" parent="1">
          <mxGeometry x="1780" y="2030" width="240" height="30" as="geometry" />
        </mxCell>
        <mxCell id="zvD-o7Wk8ceVR9qflsV9-143" value="" style="edgeStyle=orthogonalEdgeStyle;rounded=0;orthogonalLoop=1;jettySize=auto;html=1;" edge="1" parent="1">
          <mxGeometry relative="1" as="geometry">
            <mxPoint x="1893.7314285714285" y="2060" as="sourcePoint" />
            <mxPoint x="1893.9714285714285" y="2080" as="targetPoint" />
          </mxGeometry>
        </mxCell>
        <mxCell id="zvD-o7Wk8ceVR9qflsV9-144" value="merge(temp, temp_len, runs[idx], run_lengths[idx], merged, merged_len);" style="rounded=0;whiteSpace=wrap;html=1;" vertex="1" parent="1">
          <mxGeometry x="1780" y="2080" width="240" height="30" as="geometry" />
        </mxCell>
        <mxCell id="zvD-o7Wk8ceVR9qflsV9-145" value="" style="edgeStyle=orthogonalEdgeStyle;rounded=0;orthogonalLoop=1;jettySize=auto;html=1;" edge="1" parent="1">
          <mxGeometry relative="1" as="geometry">
            <mxPoint x="1893.7314285714285" y="2110" as="sourcePoint" />
            <mxPoint x="1893.9714285714285" y="2130" as="targetPoint" />
          </mxGeometry>
        </mxCell>
        <mxCell id="zvD-o7Wk8ceVR9qflsV9-146" value="copy_array(merged, merged_len, temp);" style="rounded=0;whiteSpace=wrap;html=1;" vertex="1" parent="1">
          <mxGeometry x="1780" y="2130" width="240" height="30" as="geometry" />
        </mxCell>
        <mxCell id="zvD-o7Wk8ceVR9qflsV9-147" value="" style="edgeStyle=orthogonalEdgeStyle;rounded=0;orthogonalLoop=1;jettySize=auto;html=1;" edge="1" parent="1">
          <mxGeometry relative="1" as="geometry">
            <mxPoint x="1893.7314285714285" y="2160" as="sourcePoint" />
            <mxPoint x="1893.9714285714285" y="2180" as="targetPoint" />
          </mxGeometry>
        </mxCell>
        <mxCell id="zvD-o7Wk8ceVR9qflsV9-148" value="temp_len = merged_len;" style="rounded=0;whiteSpace=wrap;html=1;" vertex="1" parent="1">
          <mxGeometry x="1780" y="2180" width="240" height="30" as="geometry" />
        </mxCell>
        <mxCell id="zvD-o7Wk8ceVR9qflsV9-149" style="edgeStyle=orthogonalEdgeStyle;rounded=0;orthogonalLoop=1;jettySize=auto;html=1;exitX=0.5;exitY=1;exitDx=0;exitDy=0;entryX=0.003;entryY=0.4;entryDx=0;entryDy=0;entryPerimeter=0;" edge="1" parent="1" source="zvD-o7Wk8ceVR9qflsV9-148" target="zvD-o7Wk8ceVR9qflsV9-135">
          <mxGeometry relative="1" as="geometry" />
        </mxCell>
        <mxCell id="zvD-o7Wk8ceVR9qflsV9-161" style="edgeStyle=orthogonalEdgeStyle;rounded=0;orthogonalLoop=1;jettySize=auto;html=1;exitX=0.5;exitY=1;exitDx=0;exitDy=0;" edge="1" parent="1" source="zvD-o7Wk8ceVR9qflsV9-160">
          <mxGeometry relative="1" as="geometry">
            <mxPoint x="2239.787878787879" y="2020.0000000000005" as="targetPoint" />
          </mxGeometry>
        </mxCell>
        <mxCell id="zvD-o7Wk8ceVR9qflsV9-160" value="merge_groups(group_idx - 1, group_indices, group_sizes, runs, run_lengths, temp, temp_len);" style="rounded=0;whiteSpace=wrap;html=1;" vertex="1" parent="1">
          <mxGeometry x="2070" y="1970" width="340" height="30" as="geometry" />
        </mxCell>
        <mxCell id="zvD-o7Wk8ceVR9qflsV9-162" value="return;" style="ellipse;whiteSpace=wrap;html=1;" vertex="1" parent="1">
          <mxGeometry x="2180" y="2020" width="120" height="40" as="geometry" />
        </mxCell>
        <mxCell id="zvD-o7Wk8ceVR9qflsV9-163" value="}" style="text;html=1;align=center;verticalAlign=middle;resizable=0;points=[];autosize=1;strokeColor=none;fillColor=none;" vertex="1" parent="1">
          <mxGeometry x="2255" y="2058" width="30" height="30" as="geometry" />
        </mxCell>
        <mxCell id="zvD-o7Wk8ceVR9qflsV9-164" value="{" style="text;html=1;align=center;verticalAlign=middle;resizable=0;points=[];autosize=1;strokeColor=none;fillColor=none;" vertex="1" parent="1">
          <mxGeometry x="1785" y="1948" width="30" height="30" as="geometry" />
        </mxCell>
        <mxCell id="zvD-o7Wk8ceVR9qflsV9-167" value="}" style="text;html=1;align=center;verticalAlign=middle;resizable=0;points=[];autosize=1;strokeColor=none;fillColor=none;" vertex="1" parent="1">
          <mxGeometry x="1915" y="2218" width="30" height="30" as="geometry" />
        </mxCell>
        <mxCell id="zvD-o7Wk8ceVR9qflsV9-168" value="{" style="text;html=1;align=center;verticalAlign=middle;resizable=0;points=[];autosize=1;strokeColor=none;fillColor=none;" vertex="1" parent="1">
          <mxGeometry x="1665" y="1728" width="30" height="30" as="geometry" />
        </mxCell>
        <mxCell id="zvD-o7Wk8ceVR9qflsV9-170" style="edgeStyle=orthogonalEdgeStyle;rounded=0;orthogonalLoop=1;jettySize=auto;html=1;exitX=0.5;exitY=1;exitDx=0;exitDy=0;" edge="1" parent="1" source="zvD-o7Wk8ceVR9qflsV9-169">
          <mxGeometry relative="1" as="geometry">
            <mxPoint x="1717.7142857142858" y="2350" as="targetPoint" />
          </mxGeometry>
        </mxCell>
        <mxCell id="zvD-o7Wk8ceVR9qflsV9-169" value="&lt;div&gt;void multi_phase_sort(int arr[], int n)&amp;nbsp;&lt;/div&gt;" style="shape=process;whiteSpace=wrap;html=1;backgroundOutline=1;" vertex="1" parent="1">
          <mxGeometry x="1465" y="2300" width="505" height="30" as="geometry" />
        </mxCell>
        <mxCell id="zvD-o7Wk8ceVR9qflsV9-171" value="int runs[10][MAX], run_lengths[10];" style="rounded=0;whiteSpace=wrap;html=1;" vertex="1" parent="1">
          <mxGeometry x="1593.97" y="2350" width="240" height="30" as="geometry" />
        </mxCell>
        <mxCell id="zvD-o7Wk8ceVR9qflsV9-172" style="edgeStyle=orthogonalEdgeStyle;rounded=0;orthogonalLoop=1;jettySize=auto;html=1;exitX=0.5;exitY=1;exitDx=0;exitDy=0;" edge="1" parent="1">
          <mxGeometry relative="1" as="geometry">
            <mxPoint x="1717.7142857142858" y="2400" as="targetPoint" />
            <mxPoint x="1718" y="2380" as="sourcePoint" />
          </mxGeometry>
        </mxCell>
        <mxCell id="zvD-o7Wk8ceVR9qflsV9-173" value="int run_count = split_into_runs(arr, n, runs, run_lengths);" style="rounded=0;whiteSpace=wrap;html=1;" vertex="1" parent="1">
          <mxGeometry x="1593.97" y="2400" width="240" height="30" as="geometry" />
        </mxCell>
        <mxCell id="zvD-o7Wk8ceVR9qflsV9-174" style="edgeStyle=orthogonalEdgeStyle;rounded=0;orthogonalLoop=1;jettySize=auto;html=1;exitX=0.5;exitY=1;exitDx=0;exitDy=0;" edge="1" parent="1">
          <mxGeometry relative="1" as="geometry">
            <mxPoint x="1717.7142857142858" y="2450" as="targetPoint" />
            <mxPoint x="1718" y="2430" as="sourcePoint" />
          </mxGeometry>
        </mxCell>
        <mxCell id="zvD-o7Wk8ceVR9qflsV9-175" value="int group_indices[10][10];" style="rounded=0;whiteSpace=wrap;html=1;" vertex="1" parent="1">
          <mxGeometry x="1593.97" y="2450" width="240" height="30" as="geometry" />
        </mxCell>
        <mxCell id="zvD-o7Wk8ceVR9qflsV9-176" style="edgeStyle=orthogonalEdgeStyle;rounded=0;orthogonalLoop=1;jettySize=auto;html=1;exitX=0.5;exitY=1;exitDx=0;exitDy=0;" edge="1" parent="1">
          <mxGeometry relative="1" as="geometry">
            <mxPoint x="1717.7142857142858" y="2500" as="targetPoint" />
            <mxPoint x="1718" y="2480" as="sourcePoint" />
          </mxGeometry>
        </mxCell>
        <mxCell id="zvD-o7Wk8ceVR9qflsV9-177" value="int group_sizes[10];" style="rounded=0;whiteSpace=wrap;html=1;" vertex="1" parent="1">
          <mxGeometry x="1593.97" y="2500" width="240" height="30" as="geometry" />
        </mxCell>
        <mxCell id="zvD-o7Wk8ceVR9qflsV9-179" style="edgeStyle=orthogonalEdgeStyle;rounded=0;orthogonalLoop=1;jettySize=auto;html=1;exitX=0.5;exitY=1;exitDx=0;exitDy=0;" edge="1" parent="1">
          <mxGeometry relative="1" as="geometry">
            <mxPoint x="1717.7142857142858" y="2550" as="targetPoint" />
            <mxPoint x="1718" y="2530" as="sourcePoint" />
          </mxGeometry>
        </mxCell>
        <mxCell id="zvD-o7Wk8ceVR9qflsV9-181" style="edgeStyle=orthogonalEdgeStyle;rounded=0;orthogonalLoop=1;jettySize=auto;html=1;exitX=0.5;exitY=1;exitDx=0;exitDy=0;" edge="1" parent="1" source="zvD-o7Wk8ceVR9qflsV9-180">
          <mxGeometry relative="1" as="geometry">
            <mxPoint x="1720" y="2610" as="targetPoint" />
          </mxGeometry>
        </mxCell>
        <mxCell id="zvD-o7Wk8ceVR9qflsV9-180" value="int group_count = 0, total = 0, fib_idx = 1;" style="rounded=0;whiteSpace=wrap;html=1;" vertex="1" parent="1">
          <mxGeometry x="1593.97" y="2550" width="240" height="30" as="geometry" />
        </mxCell>
        <mxCell id="zvD-o7Wk8ceVR9qflsV9-184" style="edgeStyle=orthogonalEdgeStyle;rounded=0;orthogonalLoop=1;jettySize=auto;html=1;exitX=0.5;exitY=1;exitDx=0;exitDy=0;" edge="1" parent="1" source="zvD-o7Wk8ceVR9qflsV9-182">
          <mxGeometry relative="1" as="geometry">
            <mxPoint x="1719.9655172413795" y="2709.9999999999995" as="targetPoint" />
          </mxGeometry>
        </mxCell>
        <mxCell id="zvD-o7Wk8ceVR9qflsV9-210" style="edgeStyle=orthogonalEdgeStyle;rounded=0;orthogonalLoop=1;jettySize=auto;html=1;exitX=1;exitY=0.5;exitDx=0;exitDy=0;entryX=0.5;entryY=0;entryDx=0;entryDy=0;" edge="1" parent="1" source="zvD-o7Wk8ceVR9qflsV9-182" target="zvD-o7Wk8ceVR9qflsV9-211">
          <mxGeometry relative="1" as="geometry">
            <mxPoint x="2240" y="2720" as="targetPoint" />
          </mxGeometry>
        </mxCell>
        <mxCell id="zvD-o7Wk8ceVR9qflsV9-182" value="&amp;nbsp;while (total &amp;lt; run_count)&amp;nbsp;" style="rhombus;whiteSpace=wrap;html=1;" vertex="1" parent="1">
          <mxGeometry x="1610" y="2610" width="220" height="80" as="geometry" />
        </mxCell>
        <mxCell id="zvD-o7Wk8ceVR9qflsV9-185" value="int f = fibonacci(fib_idx++);" style="rounded=0;whiteSpace=wrap;html=1;" vertex="1" parent="1">
          <mxGeometry x="1593.97" y="2710" width="240" height="30" as="geometry" />
        </mxCell>
        <mxCell id="zvD-o7Wk8ceVR9qflsV9-186" value="" style="edgeStyle=orthogonalEdgeStyle;rounded=0;orthogonalLoop=1;jettySize=auto;html=1;" edge="1" parent="1">
          <mxGeometry relative="1" as="geometry">
            <mxPoint x="1723.702857142857" y="2740" as="sourcePoint" />
            <mxPoint x="1723.942857142857" y="2760" as="targetPoint" />
          </mxGeometry>
        </mxCell>
        <mxCell id="zvD-o7Wk8ceVR9qflsV9-187" value="" style="edgeStyle=orthogonalEdgeStyle;rounded=0;orthogonalLoop=1;jettySize=auto;html=1;" edge="1" parent="1">
          <mxGeometry relative="1" as="geometry">
            <mxPoint x="1723.942857142857" y="2740" as="sourcePoint" />
            <mxPoint x="1723.942857142857" y="2760" as="targetPoint" />
          </mxGeometry>
        </mxCell>
        <mxCell id="zvD-o7Wk8ceVR9qflsV9-188" style="edgeStyle=orthogonalEdgeStyle;rounded=0;orthogonalLoop=1;jettySize=auto;html=1;exitX=0;exitY=0.5;exitDx=0;exitDy=0;" edge="1" source="zvD-o7Wk8ceVR9qflsV9-190" parent="1">
          <mxGeometry relative="1" as="geometry">
            <mxPoint x="1580" y="2850" as="targetPoint" />
          </mxGeometry>
        </mxCell>
        <mxCell id="zvD-o7Wk8ceVR9qflsV9-189" style="edgeStyle=orthogonalEdgeStyle;rounded=0;orthogonalLoop=1;jettySize=auto;html=1;exitX=1;exitY=0.5;exitDx=0;exitDy=0;" edge="1" source="zvD-o7Wk8ceVR9qflsV9-190" parent="1">
          <mxGeometry relative="1" as="geometry">
            <mxPoint x="1730" y="2900" as="targetPoint" />
            <Array as="points">
              <mxPoint x="1810" y="2800" />
              <mxPoint x="1810" y="2900" />
            </Array>
          </mxGeometry>
        </mxCell>
        <mxCell id="zvD-o7Wk8ceVR9qflsV9-190" value="if (total + f &amp;gt; run_count)" style="rhombus;whiteSpace=wrap;html=1;" vertex="1" parent="1">
          <mxGeometry x="1660" y="2760" width="130" height="80" as="geometry" />
        </mxCell>
        <mxCell id="zvD-o7Wk8ceVR9qflsV9-191" style="edgeStyle=orthogonalEdgeStyle;rounded=0;orthogonalLoop=1;jettySize=auto;html=1;exitX=0.5;exitY=1;exitDx=0;exitDy=0;" edge="1" source="zvD-o7Wk8ceVR9qflsV9-192" parent="1">
          <mxGeometry relative="1" as="geometry">
            <mxPoint x="1729.9999999999998" y="2900" as="targetPoint" />
            <Array as="points">
              <mxPoint x="1580" y="2900" />
            </Array>
          </mxGeometry>
        </mxCell>
        <mxCell id="zvD-o7Wk8ceVR9qflsV9-192" value="f = run_count - total;" style="rounded=0;whiteSpace=wrap;html=1;" vertex="1" parent="1">
          <mxGeometry x="1520" y="2850" width="120" height="30" as="geometry" />
        </mxCell>
        <mxCell id="zvD-o7Wk8ceVR9qflsV9-195" style="edgeStyle=orthogonalEdgeStyle;rounded=0;orthogonalLoop=1;jettySize=auto;html=1;exitX=0.5;exitY=1;exitDx=0;exitDy=0;" edge="1" parent="1">
          <mxGeometry relative="1" as="geometry">
            <mxPoint x="1730.9955172413795" y="2919.9999999999995" as="targetPoint" />
            <mxPoint x="1731.03" y="2900" as="sourcePoint" />
          </mxGeometry>
        </mxCell>
        <mxCell id="zvD-o7Wk8ceVR9qflsV9-196" value="group_sizes[group_count] = f;" style="rounded=0;whiteSpace=wrap;html=1;" vertex="1" parent="1">
          <mxGeometry x="1605" y="2920" width="240" height="30" as="geometry" />
        </mxCell>
        <mxCell id="zvD-o7Wk8ceVR9qflsV9-199" value="" style="edgeStyle=orthogonalEdgeStyle;rounded=0;orthogonalLoop=1;jettySize=auto;html=1;" edge="1" parent="1">
          <mxGeometry relative="1" as="geometry">
            <mxPoint x="1734.0214285714285" y="2950" as="sourcePoint" />
            <mxPoint x="1734.0214285714285" y="2970" as="targetPoint" />
          </mxGeometry>
        </mxCell>
        <mxCell id="zvD-o7Wk8ceVR9qflsV9-200" style="edgeStyle=orthogonalEdgeStyle;rounded=0;orthogonalLoop=1;jettySize=auto;html=1;exitX=1;exitY=0.5;exitDx=0;exitDy=0;" edge="1" source="zvD-o7Wk8ceVR9qflsV9-201" parent="1">
          <mxGeometry relative="1" as="geometry">
            <mxPoint x="1984.0214285714285" y="3080" as="targetPoint" />
          </mxGeometry>
        </mxCell>
        <mxCell id="zvD-o7Wk8ceVR9qflsV9-201" value="" style="verticalLabelPosition=bottom;verticalAlign=top;html=1;shape=hexagon;perimeter=hexagonPerimeter2;arcSize=6;size=0.11951219512195121;" vertex="1" parent="1">
          <mxGeometry x="1629.5214285714285" y="2970" width="205" height="50" as="geometry" />
        </mxCell>
        <mxCell id="zvD-o7Wk8ceVR9qflsV9-202" value="" style="edgeStyle=orthogonalEdgeStyle;rounded=0;orthogonalLoop=1;jettySize=auto;html=1;" edge="1" parent="1">
          <mxGeometry relative="1" as="geometry">
            <mxPoint x="1733.7814285714285" y="3020" as="sourcePoint" />
            <mxPoint x="1734.0214285714285" y="3040" as="targetPoint" />
          </mxGeometry>
        </mxCell>
        <mxCell id="zvD-o7Wk8ceVR9qflsV9-203" value="for (int i = 0; i &amp;lt; f; ++i)" style="text;html=1;align=center;verticalAlign=middle;whiteSpace=wrap;rounded=0;" vertex="1" parent="1">
          <mxGeometry x="1674.0214285714285" y="2980" width="120" height="30" as="geometry" />
        </mxCell>
        <mxCell id="zvD-o7Wk8ceVR9qflsV9-204" value="" style="edgeStyle=orthogonalEdgeStyle;rounded=0;orthogonalLoop=1;jettySize=auto;html=1;entryX=0;entryY=0.5;entryDx=0;entryDy=0;" edge="1" target="zvD-o7Wk8ceVR9qflsV9-201" parent="1">
          <mxGeometry relative="1" as="geometry">
            <mxPoint x="1734.0214285714285" y="3070" as="sourcePoint" />
            <mxPoint x="1614.0214285714285" y="3040" as="targetPoint" />
            <Array as="points">
              <mxPoint x="1734.0214285714285" y="3120" />
              <mxPoint x="1610.0214285714285" y="3120" />
              <mxPoint x="1610.0214285714285" y="2995" />
            </Array>
          </mxGeometry>
        </mxCell>
        <mxCell id="zvD-o7Wk8ceVR9qflsV9-205" value="group_indices[group_count][i] = total + i;" style="rounded=0;whiteSpace=wrap;html=1;" vertex="1" parent="1">
          <mxGeometry x="1620" y="3040" width="220" height="30" as="geometry" />
        </mxCell>
        <mxCell id="zvD-o7Wk8ceVR9qflsV9-207" style="edgeStyle=orthogonalEdgeStyle;rounded=0;orthogonalLoop=1;jettySize=auto;html=1;exitX=0.5;exitY=1;exitDx=0;exitDy=0;" edge="1" parent="1" source="zvD-o7Wk8ceVR9qflsV9-206">
          <mxGeometry relative="1" as="geometry">
            <mxPoint x="1984.8571428571431" y="3130" as="targetPoint" />
          </mxGeometry>
        </mxCell>
        <mxCell id="zvD-o7Wk8ceVR9qflsV9-206" value="total += f;" style="rounded=0;whiteSpace=wrap;html=1;" vertex="1" parent="1">
          <mxGeometry x="1930" y="3080" width="110" height="30" as="geometry" />
        </mxCell>
        <mxCell id="zvD-o7Wk8ceVR9qflsV9-209" style="edgeStyle=orthogonalEdgeStyle;rounded=0;orthogonalLoop=1;jettySize=auto;html=1;exitX=0.5;exitY=1;exitDx=0;exitDy=0;entryX=0;entryY=0.5;entryDx=0;entryDy=0;" edge="1" parent="1" source="zvD-o7Wk8ceVR9qflsV9-208" target="zvD-o7Wk8ceVR9qflsV9-182">
          <mxGeometry relative="1" as="geometry">
            <Array as="points">
              <mxPoint x="1985" y="3180" />
              <mxPoint x="1510" y="3180" />
              <mxPoint x="1510" y="2650" />
            </Array>
          </mxGeometry>
        </mxCell>
        <mxCell id="zvD-o7Wk8ceVR9qflsV9-208" value="group_count++;" style="rounded=0;whiteSpace=wrap;html=1;" vertex="1" parent="1">
          <mxGeometry x="1930" y="3130" width="110" height="30" as="geometry" />
        </mxCell>
        <mxCell id="zvD-o7Wk8ceVR9qflsV9-211" value="printf(&quot;Группы по числам Фибоначчи:\n&quot;);" style="shape=parallelogram;perimeter=parallelogramPerimeter;whiteSpace=wrap;html=1;fixedSize=1;" vertex="1" parent="1">
          <mxGeometry x="2220" y="2730" width="190" height="40" as="geometry" />
        </mxCell>
        <mxCell id="zvD-o7Wk8ceVR9qflsV9-212" value="" style="edgeStyle=orthogonalEdgeStyle;rounded=0;orthogonalLoop=1;jettySize=auto;html=1;" edge="1" parent="1">
          <mxGeometry relative="1" as="geometry">
            <mxPoint x="2313.9714285714285" y="2770" as="sourcePoint" />
            <mxPoint x="2313.9714285714285" y="2790" as="targetPoint" />
          </mxGeometry>
        </mxCell>
        <mxCell id="zvD-o7Wk8ceVR9qflsV9-228" style="edgeStyle=orthogonalEdgeStyle;rounded=0;orthogonalLoop=1;jettySize=auto;html=1;exitX=1;exitY=0.5;exitDx=0;exitDy=0;" edge="1" parent="1" source="zvD-o7Wk8ceVR9qflsV9-214">
          <mxGeometry relative="1" as="geometry">
            <mxPoint x="2560" y="2870" as="targetPoint" />
          </mxGeometry>
        </mxCell>
        <mxCell id="zvD-o7Wk8ceVR9qflsV9-214" value="" style="verticalLabelPosition=bottom;verticalAlign=top;html=1;shape=hexagon;perimeter=hexagonPerimeter2;arcSize=6;size=0.11951219512195121;" vertex="1" parent="1">
          <mxGeometry x="2209.4714285714285" y="2790" width="205" height="50" as="geometry" />
        </mxCell>
        <mxCell id="zvD-o7Wk8ceVR9qflsV9-215" value="" style="edgeStyle=orthogonalEdgeStyle;rounded=0;orthogonalLoop=1;jettySize=auto;html=1;" edge="1" parent="1">
          <mxGeometry relative="1" as="geometry">
            <mxPoint x="2313.7314285714283" y="2840" as="sourcePoint" />
            <mxPoint x="2313.9714285714285" y="2860" as="targetPoint" />
          </mxGeometry>
        </mxCell>
        <mxCell id="zvD-o7Wk8ceVR9qflsV9-216" value="for (int g = 0; g &amp;lt; group_count; ++g)&amp;nbsp;" style="text;html=1;align=center;verticalAlign=middle;whiteSpace=wrap;rounded=0;" vertex="1" parent="1">
          <mxGeometry x="2253.9714285714285" y="2800" width="120" height="30" as="geometry" />
        </mxCell>
        <mxCell id="zvD-o7Wk8ceVR9qflsV9-219" value="printf(&quot;Группа %d: &quot;, g + 1);" style="shape=parallelogram;perimeter=parallelogramPerimeter;whiteSpace=wrap;html=1;fixedSize=1;" vertex="1" parent="1">
          <mxGeometry x="2230" y="2860" width="170" height="30" as="geometry" />
        </mxCell>
        <mxCell id="zvD-o7Wk8ceVR9qflsV9-220" value="" style="edgeStyle=orthogonalEdgeStyle;rounded=0;orthogonalLoop=1;jettySize=auto;html=1;" edge="1" parent="1">
          <mxGeometry relative="1" as="geometry">
            <mxPoint x="2313.9714285714285" y="2890" as="sourcePoint" />
            <mxPoint x="2313.9714285714285" y="2910" as="targetPoint" />
          </mxGeometry>
        </mxCell>
        <mxCell id="zvD-o7Wk8ceVR9qflsV9-221" style="edgeStyle=orthogonalEdgeStyle;rounded=0;orthogonalLoop=1;jettySize=auto;html=1;exitX=1;exitY=0.5;exitDx=0;exitDy=0;entryX=0.003;entryY=0.6;entryDx=0;entryDy=0;entryPerimeter=0;" edge="1" source="zvD-o7Wk8ceVR9qflsV9-222" parent="1" target="zvD-o7Wk8ceVR9qflsV9-214">
          <mxGeometry relative="1" as="geometry">
            <mxPoint x="2563.9714285714285" y="3020" as="targetPoint" />
            <Array as="points">
              <mxPoint x="2435" y="2935" />
              <mxPoint x="2435" y="3080" />
              <mxPoint x="2160" y="3080" />
              <mxPoint x="2160" y="2820" />
            </Array>
          </mxGeometry>
        </mxCell>
        <mxCell id="zvD-o7Wk8ceVR9qflsV9-222" value="" style="verticalLabelPosition=bottom;verticalAlign=top;html=1;shape=hexagon;perimeter=hexagonPerimeter2;arcSize=6;size=0.11951219512195121;" vertex="1" parent="1">
          <mxGeometry x="2209.4714285714285" y="2910" width="205" height="50" as="geometry" />
        </mxCell>
        <mxCell id="zvD-o7Wk8ceVR9qflsV9-223" value="" style="edgeStyle=orthogonalEdgeStyle;rounded=0;orthogonalLoop=1;jettySize=auto;html=1;" edge="1" parent="1">
          <mxGeometry relative="1" as="geometry">
            <mxPoint x="2313.7314285714283" y="2960" as="sourcePoint" />
            <mxPoint x="2313.9714285714285" y="2980" as="targetPoint" />
          </mxGeometry>
        </mxCell>
        <mxCell id="zvD-o7Wk8ceVR9qflsV9-224" value="for (int i = 0; i &amp;lt; group_sizes[g]; ++i)&amp;nbsp;" style="text;html=1;align=center;verticalAlign=middle;whiteSpace=wrap;rounded=0;" vertex="1" parent="1">
          <mxGeometry x="2253.9714285714285" y="2920" width="120" height="30" as="geometry" />
        </mxCell>
        <mxCell id="zvD-o7Wk8ceVR9qflsV9-225" value="" style="edgeStyle=orthogonalEdgeStyle;rounded=0;orthogonalLoop=1;jettySize=auto;html=1;entryX=0;entryY=0.5;entryDx=0;entryDy=0;" edge="1" target="zvD-o7Wk8ceVR9qflsV9-222" parent="1">
          <mxGeometry relative="1" as="geometry">
            <mxPoint x="2313.9714285714285" y="3010" as="sourcePoint" />
            <mxPoint x="2193.9714285714285" y="2980" as="targetPoint" />
            <Array as="points">
              <mxPoint x="2313.9714285714285" y="3060" />
              <mxPoint x="2189.9714285714285" y="3060" />
              <mxPoint x="2189.9714285714285" y="2935" />
            </Array>
          </mxGeometry>
        </mxCell>
        <mxCell id="zvD-o7Wk8ceVR9qflsV9-227" value="printf(&quot;Серия %d &quot;, group_indices[g][i] + 1);" style="shape=parallelogram;perimeter=parallelogramPerimeter;whiteSpace=wrap;html=1;fixedSize=1;" vertex="1" parent="1">
          <mxGeometry x="2226.97" y="2980" width="170" height="30" as="geometry" />
        </mxCell>
        <mxCell id="zvD-o7Wk8ceVR9qflsV9-230" style="edgeStyle=orthogonalEdgeStyle;rounded=0;orthogonalLoop=1;jettySize=auto;html=1;exitX=0.5;exitY=1;exitDx=0;exitDy=0;" edge="1" parent="1" source="zvD-o7Wk8ceVR9qflsV9-229">
          <mxGeometry relative="1" as="geometry">
            <mxPoint x="2570" y="2920" as="targetPoint" />
          </mxGeometry>
        </mxCell>
        <mxCell id="zvD-o7Wk8ceVR9qflsV9-229" value="int temp1[MAX], temp1_len = 0;" style="rounded=0;whiteSpace=wrap;html=1;" vertex="1" parent="1">
          <mxGeometry x="2470" y="2870" width="200" height="30" as="geometry" />
        </mxCell>
        <mxCell id="zvD-o7Wk8ceVR9qflsV9-232" style="edgeStyle=orthogonalEdgeStyle;rounded=0;orthogonalLoop=1;jettySize=auto;html=1;exitX=0.5;exitY=1;exitDx=0;exitDy=0;" edge="1" parent="1" source="zvD-o7Wk8ceVR9qflsV9-231">
          <mxGeometry relative="1" as="geometry">
            <mxPoint x="2570" y="2970" as="targetPoint" />
          </mxGeometry>
        </mxCell>
        <mxCell id="zvD-o7Wk8ceVR9qflsV9-231" value="int merged[MAX], merged_len;" style="rounded=0;whiteSpace=wrap;html=1;" vertex="1" parent="1">
          <mxGeometry x="2470" y="2920" width="200" height="30" as="geometry" />
        </mxCell>
        <mxCell id="zvD-o7Wk8ceVR9qflsV9-234" style="edgeStyle=orthogonalEdgeStyle;rounded=0;orthogonalLoop=1;jettySize=auto;html=1;exitX=0.5;exitY=1;exitDx=0;exitDy=0;" edge="1" parent="1" source="zvD-o7Wk8ceVR9qflsV9-233">
          <mxGeometry relative="1" as="geometry">
            <mxPoint x="2624.8571428571427" y="3020" as="targetPoint" />
          </mxGeometry>
        </mxCell>
        <mxCell id="zvD-o7Wk8ceVR9qflsV9-233" value="merge_groups(group_count - 1, group_indices, group_sizes, runs, run_lengths, temp1, temp1_len);" style="rounded=0;whiteSpace=wrap;html=1;" vertex="1" parent="1">
          <mxGeometry x="2460" y="2970" width="330" height="30" as="geometry" />
        </mxCell>
        <mxCell id="zvD-o7Wk8ceVR9qflsV9-235" value="FILE* out = fopen(&quot;result.txt&quot;, &quot;w&quot;);" style="rounded=0;whiteSpace=wrap;html=1;" vertex="1" parent="1">
          <mxGeometry x="2470" y="3020" width="330" height="30" as="geometry" />
        </mxCell>
        <mxCell id="zvD-o7Wk8ceVR9qflsV9-236" value="" style="edgeStyle=orthogonalEdgeStyle;rounded=0;orthogonalLoop=1;jettySize=auto;html=1;" edge="1" parent="1">
          <mxGeometry relative="1" as="geometry">
            <mxPoint x="2623.9714285714285" y="3050" as="sourcePoint" />
            <mxPoint x="2623.9714285714285" y="3070" as="targetPoint" />
          </mxGeometry>
        </mxCell>
        <mxCell id="zvD-o7Wk8ceVR9qflsV9-237" style="edgeStyle=orthogonalEdgeStyle;rounded=0;orthogonalLoop=1;jettySize=auto;html=1;exitX=1;exitY=0.5;exitDx=0;exitDy=0;" edge="1" source="zvD-o7Wk8ceVR9qflsV9-238" parent="1">
          <mxGeometry relative="1" as="geometry">
            <mxPoint x="2873.9714285714285" y="3180" as="targetPoint" />
          </mxGeometry>
        </mxCell>
        <mxCell id="zvD-o7Wk8ceVR9qflsV9-238" value="" style="verticalLabelPosition=bottom;verticalAlign=top;html=1;shape=hexagon;perimeter=hexagonPerimeter2;arcSize=6;size=0.11951219512195121;" vertex="1" parent="1">
          <mxGeometry x="2519.4714285714285" y="3070" width="205" height="50" as="geometry" />
        </mxCell>
        <mxCell id="zvD-o7Wk8ceVR9qflsV9-239" value="" style="edgeStyle=orthogonalEdgeStyle;rounded=0;orthogonalLoop=1;jettySize=auto;html=1;" edge="1" parent="1">
          <mxGeometry relative="1" as="geometry">
            <mxPoint x="2623.7314285714283" y="3120" as="sourcePoint" />
            <mxPoint x="2623.9714285714285" y="3140" as="targetPoint" />
          </mxGeometry>
        </mxCell>
        <mxCell id="zvD-o7Wk8ceVR9qflsV9-240" value="for (int i = 0; i &amp;lt; temp1_len; ++i)" style="text;html=1;align=center;verticalAlign=middle;whiteSpace=wrap;rounded=0;" vertex="1" parent="1">
          <mxGeometry x="2563.9714285714285" y="3080" width="120" height="30" as="geometry" />
        </mxCell>
        <mxCell id="zvD-o7Wk8ceVR9qflsV9-241" value="" style="edgeStyle=orthogonalEdgeStyle;rounded=0;orthogonalLoop=1;jettySize=auto;html=1;entryX=0;entryY=0.5;entryDx=0;entryDy=0;" edge="1" target="zvD-o7Wk8ceVR9qflsV9-238" parent="1">
          <mxGeometry relative="1" as="geometry">
            <mxPoint x="2623.9714285714285" y="3170" as="sourcePoint" />
            <mxPoint x="2503.9714285714285" y="3140" as="targetPoint" />
            <Array as="points">
              <mxPoint x="2623.9714285714285" y="3220" />
              <mxPoint x="2499.9714285714285" y="3220" />
              <mxPoint x="2499.9714285714285" y="3095" />
            </Array>
          </mxGeometry>
        </mxCell>
        <mxCell id="zvD-o7Wk8ceVR9qflsV9-242" value="fprintf(out, &quot;%d &quot;, temp1[i]);" style="rounded=0;whiteSpace=wrap;html=1;" vertex="1" parent="1">
          <mxGeometry x="2563.9714285714285" y="3140" width="120" height="30" as="geometry" />
        </mxCell>
        <mxCell id="zvD-o7Wk8ceVR9qflsV9-244" style="edgeStyle=orthogonalEdgeStyle;rounded=0;orthogonalLoop=1;jettySize=auto;html=1;exitX=0.5;exitY=1;exitDx=0;exitDy=0;" edge="1" parent="1" source="zvD-o7Wk8ceVR9qflsV9-243">
          <mxGeometry relative="1" as="geometry">
            <mxPoint x="2870" y="3230" as="targetPoint" />
          </mxGeometry>
        </mxCell>
        <mxCell id="zvD-o7Wk8ceVR9qflsV9-243" value="&amp;nbsp;fclose(out);" style="rounded=0;whiteSpace=wrap;html=1;" vertex="1" parent="1">
          <mxGeometry x="2810.0014285714287" y="3180" width="120" height="30" as="geometry" />
        </mxCell>
        <mxCell id="zvD-o7Wk8ceVR9qflsV9-247" style="edgeStyle=orthogonalEdgeStyle;rounded=0;orthogonalLoop=1;jettySize=auto;html=1;exitX=0.5;exitY=1;exitDx=0;exitDy=0;" edge="1" parent="1" source="zvD-o7Wk8ceVR9qflsV9-246">
          <mxGeometry relative="1" as="geometry">
            <mxPoint x="2870.232558139535" y="3280" as="targetPoint" />
          </mxGeometry>
        </mxCell>
        <mxCell id="zvD-o7Wk8ceVR9qflsV9-246" value="print_array(&quot;Отсортировано&quot;, temp1, temp1_len);" style="rounded=0;whiteSpace=wrap;html=1;" vertex="1" parent="1">
          <mxGeometry x="2760" y="3230" width="220" height="30" as="geometry" />
        </mxCell>
        <mxCell id="zvD-o7Wk8ceVR9qflsV9-248" value="return;" style="ellipse;whiteSpace=wrap;html=1;" vertex="1" parent="1">
          <mxGeometry x="2810" y="3280" width="120" height="40" as="geometry" />
        </mxCell>
        <mxCell id="zvD-o7Wk8ceVR9qflsV9-249" value="{" style="text;html=1;align=center;verticalAlign=middle;resizable=0;points=[];autosize=1;strokeColor=none;fillColor=none;" vertex="1" parent="1">
          <mxGeometry x="1555" y="2328" width="30" height="30" as="geometry" />
        </mxCell>
        <mxCell id="zvD-o7Wk8ceVR9qflsV9-250" value="}" style="text;html=1;align=center;verticalAlign=middle;resizable=0;points=[];autosize=1;strokeColor=none;fillColor=none;" vertex="1" parent="1">
          <mxGeometry x="2925" y="3308" width="30" height="30" as="geometry" />
        </mxCell>
        <mxCell id="zvD-o7Wk8ceVR9qflsV9-251" value="{" style="text;html=1;align=center;verticalAlign=middle;resizable=0;points=[];autosize=1;strokeColor=none;fillColor=none;" vertex="1" parent="1">
          <mxGeometry x="2195" y="2828" width="30" height="30" as="geometry" />
        </mxCell>
        <mxCell id="zvD-o7Wk8ceVR9qflsV9-252" value="}" style="text;html=1;align=center;verticalAlign=middle;resizable=0;points=[];autosize=1;strokeColor=none;fillColor=none;" vertex="1" parent="1">
          <mxGeometry x="2515" y="2828" width="30" height="30" as="geometry" />
        </mxCell>
        <mxCell id="zvD-o7Wk8ceVR9qflsV9-253" value="" style="edgeStyle=orthogonalEdgeStyle;rounded=0;orthogonalLoop=1;jettySize=auto;html=1;" edge="1" source="zvD-o7Wk8ceVR9qflsV9-254" parent="1">
          <mxGeometry relative="1" as="geometry">
            <mxPoint x="2156" y="3378" as="targetPoint" />
          </mxGeometry>
        </mxCell>
        <mxCell id="zvD-o7Wk8ceVR9qflsV9-254" value="Начало" style="ellipse;whiteSpace=wrap;html=1;" vertex="1" parent="1">
          <mxGeometry x="2096" y="3308" width="120" height="40" as="geometry" />
        </mxCell>
        <mxCell id="zvD-o7Wk8ceVR9qflsV9-255" value="" style="edgeStyle=orthogonalEdgeStyle;rounded=0;orthogonalLoop=1;jettySize=auto;html=1;" edge="1" source="zvD-o7Wk8ceVR9qflsV9-256" parent="1">
          <mxGeometry relative="1" as="geometry">
            <mxPoint x="2156" y="3428" as="targetPoint" />
          </mxGeometry>
        </mxCell>
        <mxCell id="zvD-o7Wk8ceVR9qflsV9-256" value="int main()" style="shape=process;whiteSpace=wrap;html=1;backgroundOutline=1;" vertex="1" parent="1">
          <mxGeometry x="2096" y="3378" width="120" height="30" as="geometry" />
        </mxCell>
        <mxCell id="zvD-o7Wk8ceVR9qflsV9-259" value="setlocale(LC_ALL, &quot;Russian&quot;);" style="rounded=0;whiteSpace=wrap;html=1;" vertex="1" parent="1">
          <mxGeometry x="2096" y="3430" width="120" height="30" as="geometry" />
        </mxCell>
        <mxCell id="zvD-o7Wk8ceVR9qflsV9-260" value="" style="edgeStyle=orthogonalEdgeStyle;rounded=0;orthogonalLoop=1;jettySize=auto;html=1;" edge="1" parent="1">
          <mxGeometry relative="1" as="geometry">
            <mxPoint x="2156" y="3460" as="sourcePoint" />
            <mxPoint x="2156" y="3480" as="targetPoint" />
          </mxGeometry>
        </mxCell>
        <mxCell id="zvD-o7Wk8ceVR9qflsV9-261" value="&lt;div&gt;#define _CRT_SECURE_NO_WARNINGS&lt;/div&gt;&lt;div&gt;#include &amp;lt;cstdio&amp;gt;&lt;/div&gt;&lt;div&gt;#include &amp;lt;iostream&amp;gt;&lt;/div&gt;&lt;div&gt;using namespace std;&lt;/div&gt;" style="strokeWidth=2;html=1;shape=mxgraph.flowchart.annotation_2;align=left;labelPosition=right;pointerEvents=1;" vertex="1" parent="1">
          <mxGeometry x="2236" y="3308" width="50" height="100" as="geometry" />
        </mxCell>
        <mxCell id="zvD-o7Wk8ceVR9qflsV9-262" value="" style="endArrow=none;dashed=1;html=1;rounded=0;entryX=-0.04;entryY=0.503;entryDx=0;entryDy=0;entryPerimeter=0;" edge="1" target="zvD-o7Wk8ceVR9qflsV9-261" parent="1">
          <mxGeometry width="50" height="50" relative="1" as="geometry">
            <mxPoint x="2156" y="3358" as="sourcePoint" />
            <mxPoint x="2226" y="3358" as="targetPoint" />
          </mxGeometry>
        </mxCell>
        <mxCell id="zvD-o7Wk8ceVR9qflsV9-263" value="FILE* in = fopen(&quot;data.txt&quot;, &quot;r&quot;);" style="rounded=0;whiteSpace=wrap;html=1;" vertex="1" parent="1">
          <mxGeometry x="2040" y="3480" width="220" height="30" as="geometry" />
        </mxCell>
        <mxCell id="zvD-o7Wk8ceVR9qflsV9-264" value="" style="edgeStyle=orthogonalEdgeStyle;rounded=0;orthogonalLoop=1;jettySize=auto;html=1;" edge="1" parent="1">
          <mxGeometry relative="1" as="geometry">
            <mxPoint x="2156" y="3510" as="sourcePoint" />
            <mxPoint x="2156" y="3530" as="targetPoint" />
          </mxGeometry>
        </mxCell>
        <mxCell id="zvD-o7Wk8ceVR9qflsV9-266" style="edgeStyle=orthogonalEdgeStyle;rounded=0;orthogonalLoop=1;jettySize=auto;html=1;exitX=0.5;exitY=1;exitDx=0;exitDy=0;" edge="1" parent="1" source="zvD-o7Wk8ceVR9qflsV9-265">
          <mxGeometry relative="1" as="geometry">
            <mxPoint x="2160" y="3580" as="targetPoint" />
          </mxGeometry>
        </mxCell>
        <mxCell id="zvD-o7Wk8ceVR9qflsV9-265" value="int arr[MAX], n = 0;" style="rounded=0;whiteSpace=wrap;html=1;" vertex="1" parent="1">
          <mxGeometry x="2040" y="3530" width="220" height="30" as="geometry" />
        </mxCell>
        <mxCell id="zvD-o7Wk8ceVR9qflsV9-268" style="edgeStyle=orthogonalEdgeStyle;rounded=0;orthogonalLoop=1;jettySize=auto;html=1;exitX=0.5;exitY=1;exitDx=0;exitDy=0;" edge="1" parent="1" source="zvD-o7Wk8ceVR9qflsV9-267">
          <mxGeometry relative="1" as="geometry">
            <mxPoint x="2160.238095238095" y="3680" as="targetPoint" />
          </mxGeometry>
        </mxCell>
        <mxCell id="zvD-o7Wk8ceVR9qflsV9-273" style="edgeStyle=orthogonalEdgeStyle;rounded=0;orthogonalLoop=1;jettySize=auto;html=1;exitX=1;exitY=0.5;exitDx=0;exitDy=0;entryX=0.5;entryY=0;entryDx=0;entryDy=0;" edge="1" parent="1" source="zvD-o7Wk8ceVR9qflsV9-267" target="zvD-o7Wk8ceVR9qflsV9-272">
          <mxGeometry relative="1" as="geometry" />
        </mxCell>
        <mxCell id="zvD-o7Wk8ceVR9qflsV9-267" value="while (fscanf(in, &quot;%d&quot;, &amp;amp;arr[n]) == 1)" style="rhombus;whiteSpace=wrap;html=1;" vertex="1" parent="1">
          <mxGeometry x="2060" y="3580" width="200" height="80" as="geometry" />
        </mxCell>
        <mxCell id="zvD-o7Wk8ceVR9qflsV9-270" value="&amp;nbsp;n++;" style="rounded=0;whiteSpace=wrap;html=1;" vertex="1" parent="1">
          <mxGeometry x="2105" y="3680" width="105" height="30" as="geometry" />
        </mxCell>
        <mxCell id="zvD-o7Wk8ceVR9qflsV9-271" style="edgeStyle=orthogonalEdgeStyle;rounded=0;orthogonalLoop=1;jettySize=auto;html=1;exitX=0.5;exitY=1;exitDx=0;exitDy=0;entryX=0;entryY=0.5;entryDx=0;entryDy=0;" edge="1" parent="1" target="zvD-o7Wk8ceVR9qflsV9-267">
          <mxGeometry relative="1" as="geometry">
            <mxPoint x="2159.7080952380948" y="3730" as="targetPoint" />
            <mxPoint x="2159.47" y="3710" as="sourcePoint" />
            <Array as="points">
              <mxPoint x="2159" y="3730" />
              <mxPoint x="2040" y="3730" />
              <mxPoint x="2040" y="3620" />
            </Array>
          </mxGeometry>
        </mxCell>
        <mxCell id="zvD-o7Wk8ceVR9qflsV9-274" style="edgeStyle=orthogonalEdgeStyle;rounded=0;orthogonalLoop=1;jettySize=auto;html=1;exitX=0.5;exitY=1;exitDx=0;exitDy=0;" edge="1" parent="1" source="zvD-o7Wk8ceVR9qflsV9-272">
          <mxGeometry relative="1" as="geometry">
            <mxPoint x="2372.285714285714" y="3730" as="targetPoint" />
          </mxGeometry>
        </mxCell>
        <mxCell id="zvD-o7Wk8ceVR9qflsV9-272" value="&lt;div&gt;fclose(in);&lt;/div&gt;" style="rounded=0;whiteSpace=wrap;html=1;" vertex="1" parent="1">
          <mxGeometry x="2320" y="3680" width="105" height="30" as="geometry" />
        </mxCell>
        <mxCell id="zvD-o7Wk8ceVR9qflsV9-276" style="edgeStyle=orthogonalEdgeStyle;rounded=0;orthogonalLoop=1;jettySize=auto;html=1;exitX=0.5;exitY=1;exitDx=0;exitDy=0;" edge="1" parent="1" source="zvD-o7Wk8ceVR9qflsV9-275">
          <mxGeometry relative="1" as="geometry">
            <mxPoint x="2370" y="3780" as="targetPoint" />
          </mxGeometry>
        </mxCell>
        <mxCell id="zvD-o7Wk8ceVR9qflsV9-275" value="&lt;div&gt;multi_phase_sort(arr, n);&lt;/div&gt;" style="rounded=0;whiteSpace=wrap;html=1;" vertex="1" parent="1">
          <mxGeometry x="2290" y="3730" width="160" height="30" as="geometry" />
        </mxCell>
        <mxCell id="zvD-o7Wk8ceVR9qflsV9-277" value="return 0;" style="ellipse;whiteSpace=wrap;html=1;" vertex="1" parent="1">
          <mxGeometry x="2310" y="3780" width="120" height="40" as="geometry" />
        </mxCell>
        <mxCell id="zvD-o7Wk8ceVR9qflsV9-278" value="{" style="text;html=1;align=center;verticalAlign=middle;resizable=0;points=[];autosize=1;strokeColor=none;fillColor=none;" vertex="1" parent="1">
          <mxGeometry x="2045" y="3358" width="30" height="30" as="geometry" />
        </mxCell>
        <mxCell id="zvD-o7Wk8ceVR9qflsV9-279" value="}" style="text;html=1;align=center;verticalAlign=middle;resizable=0;points=[];autosize=1;strokeColor=none;fillColor=none;" vertex="1" parent="1">
          <mxGeometry x="2425" y="3818" width="30" height="30" as="geometry" />
        </mxCell>
      </root>
    </mxGraphModel>
  </diagram>
</mxfile>
